<?xml version="1.0" standalone="no"?>
<!DOCTYPE svg PUBLIC "-//W3C//DTD SVG 20010904//EN"
 "http://www.w3.org/TR/2001/REC-SVG-20010904/DTD/svg10.dtd">
<svg version="1.0" xmlns="http://www.w3.org/2000/svg"
 width="320.000000pt" height="320.000000pt" viewBox="0 0 320.000000 320.000000"
 preserveAspectRatio="xMidYMid meet">
<metadata>
Created by potrace 1.14, written by Peter Selinger 2001-2017
</metadata>
<g transform="translate(0.000000,320.000000) scale(0.100000,-0.100000)"
fill="#000000" stroke="none">
<path d="M1350 2990 c-7 -5 -18 -6 -24 -4 -13 5 -97 -71 -89 -80 4 -3 2 -6 -4
-6 -10 0 -169 -155 -256 -249 -21 -23 -41 -54 -43 -68 -3 -15 -7 -30 -10 -34
-2 -4 0 -10 5 -14 6 -3 8 -12 5 -20 -8 -21 133 -160 176 -174 19 -6 53 -12 75
-14 22 -1 46 -7 54 -11 10 -7 12 -5 6 5 -5 8 2 5 14 -6 13 -11 24 -19 25 -17
2 6 41 -12 58 -27 43 -41 65 -162 42 -237 -7 -23 -10 -45 -7 -48 4 -3 1 -6 -5
-6 -6 0 -13 -8 -17 -19 -13 -40 -100 -117 -155 -136 -3 -1 -14 -6 -25 -10 -11
-5 -50 -9 -86 -9 -93 1 -156 33 -186 94 -11 25 -19 48 -16 52 2 5 0 8 -5 8 -4
0 -9 23 -11 52 -1 28 -4 55 -7 60 -3 4 -7 17 -9 27 -4 23 -119 142 -153 160
-29 15 -90 12 -120 -7 -33 -21 -122 -112 -122 -124 0 -6 -3 -9 -6 -6 -7 7 -94
-81 -94 -95 0 -6 -2 -8 -5 -5 -8 7 -82 -65 -78 -74 2 -5 -2 -8 -10 -8 -7 0
-20 -11 -27 -25 -7 -14 -17 -25 -22 -25 -4 0 -8 -18 -8 -40 0 -34 7 -48 43
-87 72 -79 109 -113 120 -113 6 0 8 -2 5 -5 -6 -7 295 -311 305 -307 4 2 7 -1
7 -7 0 -14 48 -61 62 -61 6 0 9 -3 6 -6 -4 -3 12 -23 35 -45 23 -21 37 -39 32
-39 -6 0 -4 -4 3 -8 10 -7 8 -15 -9 -36 -14 -18 -25 -24 -32 -17 -6 6 -18 6
-33 1 -16 -6 -24 -6 -24 1 0 6 -6 7 -12 2 -7 -4 -22 -8 -33 -8 -11 0 -26 -4
-32 -8 -7 -5 -13 -6 -13 -3 0 3 -21 -6 -47 -20 -56 -31 -102 -75 -129 -124
-10 -19 -21 -37 -24 -40 -10 -10 -16 -149 -7 -180 2 -8 7 -27 12 -43 4 -15 12
-27 18 -27 6 0 8 -3 4 -6 -8 -8 16 -36 102 -120 79 -78 139 -113 202 -118 22
-2 42 -6 45 -9 4 -4 15 -2 26 4 10 5 23 7 28 4 6 -3 16 -3 23 2 6 4 14 8 17 8
3 1 26 11 52 23 71 33 145 129 150 196 1 14 5 26 8 26 3 0 5 24 5 53 -1 62 4
89 16 81 5 -3 9 -1 9 5 0 27 47 0 105 -60 35 -37 66 -64 69 -61 4 3 6 1 6 -5
0 -13 390 -403 403 -403 6 0 8 -3 4 -6 -3 -4 12 -22 34 -40 52 -43 100 -46
135 -8 13 14 24 23 24 21 0 -3 28 23 63 57 35 33 61 64 59 69 -2 4 0 7 5 7 12
0 83 68 83 79 0 6 6 10 13 9 6 -2 11 3 9 10 -1 6 3 12 9 12 14 0 49 39 49 53
0 6 3 7 7 4 10 -11 31 26 42 72 8 36 6 46 -15 76 -55 81 -193 191 -209 165 -3
-5 -18 -5 -33 -1 -15 4 -31 7 -37 5 -5 -2 -35 9 -65 24 -70 34 -97 81 -104
176 -7 111 62 231 163 284 67 35 155 44 227 22 44 -13 98 -53 87 -64 -3 -3 -2
-6 4 -6 11 0 36 -70 39 -110 1 -14 3 -25 4 -25 1 0 3 -13 4 -30 1 -16 8 -41
16 -55 18 -34 124 -140 139 -140 7 0 10 -4 7 -8 -2 -4 3 -9 12 -10 9 -1 26 -3
37 -6 31 -5 133 53 118 68 -3 3 -2 6 4 6 14 0 102 87 95 94 -3 3 -1 6 5 6 15
0 193 180 212 215 9 17 16 36 15 43 -1 6 -2 19 -3 28 0 8 -140 155 -311 326
-170 171 -310 318 -310 326 0 21 43 52 57 41 7 -7 14 -6 18 1 4 6 13 7 23 1 9
-4 24 -7 32 -5 8 2 31 6 50 10 19 3 37 10 38 15 2 5 12 9 21 9 22 0 125 93
115 103 -4 4 -2 7 4 7 14 0 38 55 46 103 3 19 8 41 12 50 3 10 2 17 -2 17 -5
0 -10 19 -10 43 -1 25 -13 62 -30 92 -29 53 -151 185 -170 185 -7 0 -15 7 -18
16 -3 8 -10 12 -16 9 -5 -3 -10 -2 -10 3 0 17 -95 38 -155 35 -87 -6 -95 -7
-95 -13 0 -3 -15 -11 -32 -19 -18 -8 -43 -25 -54 -37 -12 -13 -25 -20 -28 -17
-3 4 -6 -1 -6 -10 0 -9 -6 -20 -14 -24 -11 -7 -38 -47 -41 -63 -1 -3 -5 -18
-10 -35 -5 -16 -9 -39 -9 -50 -1 -11 -5 -26 -9 -32 -5 -7 -4 -13 2 -13 11 0 9
-19 -3 -39 -7 -11 -6 -12 5 -5 10 6 10 2 -2 -16 -9 -14 -26 -25 -39 -25 -16 0
-109 86 -328 305 -169 169 -317 309 -328 312 -12 3 -28 2 -34 -2z"/>
</g>
</svg>
