<?xml version="1.0" standalone="no"?>
<!DOCTYPE svg PUBLIC "-//W3C//DTD SVG 20010904//EN"
 "http://www.w3.org/TR/2001/REC-SVG-20010904/DTD/svg10.dtd">
<svg version="1.0" xmlns="http://www.w3.org/2000/svg"
 width="600.000000pt" height="600.000000pt" viewBox="0 0 600.000000 600.000000"
 preserveAspectRatio="xMidYMid meet">

<g transform="translate(0.000000,600.000000) scale(0.100000,-0.100000)"
fill="#2e374e" stroke="none">
<path d="M1579 4077 c-55 -21 -49 -17 -749 -520 -563 -406 -653 -474 -676
-513 -53 -90 -50 -194 6 -272 24 -33 1188 -995 1318 -1089 50 -36 126 -56 183
-47 63 10 139 62 174 118 26 44 30 58 30 125 0 125 -2 127 -407 459 l-351 287
2289 5 2289 5 40 22 c180 97 179 355 -3 445 l-47 23 -2289 5 -2288 5 348 250
c192 138 360 260 375 273 15 12 39 46 53 74 62 124 11 268 -117 334 -42 22
-134 27 -178 11z"/>
</g>
</svg>
