<svg xmlns="http://www.w3.org/2000/svg" fill="#373530" height="20" viewBox="0 96 960 960" width="20"><path d="M178.609 877.391Q159.652 858.674 159.652 836t18.957-41.391l397.782-398.022H398.478q-23.435 0-41.011-17.576-17.576-17.576-17.576-41.011 0-23.435 17.576-41.011 17.576-17.576 41.011-17.576h320.283q23.674 0 40.75 17.076t17.076 40.75v320.283q0 23.435-17.576 41.011-17.576 17.576-41.011 17.576-23.435 0-41.011-17.576-17.576-17.576-17.576-41.011V479.609L262.63 877.391q-18.956 18.957-42.13 18.957-23.174 0-41.891-18.957Z"/></svg>