<?xml version="1.0" encoding="utf-8"?>
<!-- Generator: Adobe Illustrator 23.0.5, SVG Export Plug-In . SVG Version: 6.00 Build 0)  -->
<svg version="1.1" xmlns="http://www.w3.org/2000/svg" xmlns:xlink="http://www.w3.org/1999/xlink" x="0px" y="0px"
	 viewBox="0 0 750 500" style="enable-background:new 0 0 750 500;" xml:space="preserve">
<style type="text/css">
	.st0{display:none;}
	.st1{display:inline;fill:#FBF5E5;}
	.st2{clip-path:url(#SVGID_2_);}
	.st3{fill:none;stroke:#343a4e;stroke-linecap:round;stroke-linejoin:round;stroke-dasharray:2.0065,4.0129;}
	.st4{fill:none;stroke:#343a4e;stroke-linecap:round;stroke-linejoin:round;stroke-miterlimit:10;}
	.st5{fill:none;stroke:#343a4e;stroke-miterlimit:10;}
	.st6{fill:none;stroke:#343a4e;stroke-miterlimit:10;}
	.st7{fill:none;stroke:#343a4e;stroke-miterlimit:10;stroke-dasharray:2,4;}
	.st8{fill:none;stroke:#343a4e;stroke-linecap:round;stroke-linejoin:round;}
	.st9{fill:none;stroke:#343a4e;stroke-linecap:round;stroke-linejoin:round;stroke-dasharray:2.0037,4.0074;}
	.st10{fill:none;stroke:#343a4e;stroke-linecap:round;stroke-linejoin:round;stroke-dasharray:1.9954,3.9907;}
	.st11{fill:none;stroke:#343a4e;stroke-linecap:round;stroke-linejoin:round;stroke-dasharray:1.9739,3.9478;}
	.st12{fill:none;stroke:#343a4e;stroke-linecap:round;stroke-linejoin:round;stroke-dasharray:2.0018,4.0036;}
	.st13{fill:none;stroke:#343a4e;stroke-linecap:round;stroke-linejoin:round;stroke-dasharray:1.984,3.968;}
	.st14{fill:none;stroke:#343a4e;stroke-linecap:round;stroke-linejoin:round;stroke-dasharray:1.9923,3.9846;}
	.st15{fill:#343a4e;}
</style>
<g id="BACKGROUND" class="st0">
	<rect class="st1" width="750" height="500"/>
</g>
<g id="OBJECTS">
	<g>
		<defs>
			<rect id="SVGID_1_" width="750" height="500"/>
		</defs>
		<clipPath id="SVGID_2_">
			<use xlink:href="#SVGID_1_"  style="overflow:visible;"/>
		</clipPath>
		<g class="st2">
			<g>
				<g>
					<path class="st3" d="M-32.3,448.23c-4.72-8.99-7.02-19.46-2.4-29.15c4.37-9.17,14.12-15.53,24.28-15.83
						c17.5-0.52,30.75,14.6,44.03,26.01c15.85,13.61,39.5,23.19,57.18,12.07c5.79-3.64,10.19-9.11,15.69-13.18
						c12.41-9.18,32.9-11.07,42.66,0.9c12.13,14.87,0.78,19.04,11.56,32.83c12.39,15.85,29.1,11.45,41.16,27.55
						c8.65,11.54,14.31,25.3,16.29,39.59c1.13,8.17,0.97,16.94-3.16,24.07c-6.77,11.69-21.8,15.47-35.29,16.19
						c-24.21,1.3-49.82-3.41-71.82,6.78c-8.2,3.8-15.45,9.52-23.9,12.73c-11.44,4.34-24.09,3.72-36.3,2.83
						c-14.23-1.04-28.66-2.43-41.96-7.6c-13.3-5.18-25.52-14.68-30.9-27.9c-9.05-22.22,4.15-43.16,4.52-65.36
						c0.09-5.67-0.62-11.24-1.5-16.83c-0.64-4.08-2.21-7.89-3.04-11.88c-0.38-1.84-1.05-3.66-2.01-5.24
						c-0.8-1.31-1.61-2.75-2.45-4.06C-30.61,451.28-31.49,449.78-32.3,448.23z"/>
				</g>
				<path class="st4" d="M-12.21,463.46c-3.92-7.45-5.82-16.13-1.99-24.16c3.62-7.6,11.7-12.87,20.11-13.11
					c14.5-0.43,25.48,12.1,36.48,21.55c13.13,11.28,32.73,19.21,47.38,10c4.8-3.02,8.45-7.55,13-10.92
					c10.28-7.61,26.01-8,35.35,0.74c4.05,3.79,6.64,8.83,9.78,13.39c9.44,13.73,23.91,23.29,33.9,36.63
					c7.17,9.56,11.86,20.96,13.5,32.8c0.94,6.77,0.8,14.03-2.62,19.94c-5.61,9.69-18.07,12.82-29.24,13.41
					c-20.06,1.07-41.28-2.82-59.51,5.62c-6.79,3.15-12.8,7.89-19.8,10.55c-9.48,3.6-19.96,3.08-30.07,2.34
					c-11.79-0.86-23.75-2.01-34.76-6.3c-11.02-4.29-21.14-12.16-25.6-23.11c-7.49-18.41,3.44-35.76,3.74-54.15
					c0.08-4.7-0.52-9.31-1.24-13.94c-0.53-3.38-1.83-6.54-2.52-9.84c-0.32-1.52-0.87-3.04-1.67-4.34c-0.66-1.09-1.33-2.28-2.03-3.36
					C-10.8,465.99-11.53,464.74-12.21,463.46z"/>
				<path class="st4" d="M7.89,478.69c-3.1-5.91-10.55-18-7.52-24.37c2.87-6.03,9.28-10.2,15.95-10.4
					c11.5-0.34,21.49,15.23,30.22,22.72c10.41,8.94,30.61,14.81,42.23,7.51c3.8-2.39,6.7-5.99,10.31-8.66
					c8.16-6.03,20.63-6.34,28.03,0.59c3.21,3,5.26,7,7.75,10.62c7.48,10.89,18.96,18.47,26.89,29.05
					c5.68,7.58,9.4,16.62,10.71,26.01c0.74,5.37,0.64,11.13-2.08,15.82c-4.45,7.68-14.33,10.16-23.19,10.64
					c-15.91,0.85-32.74-2.24-47.19,4.46c-5.39,2.5-10.15,6.26-15.7,8.36c-7.52,2.85-15.83,2.45-23.85,1.86
					c-9.35-0.69-18.83-1.59-27.57-5c-8.74-3.4-16.77-9.65-20.3-18.33c-5.94-14.6,2.73-28.36,2.97-42.95
					c0.06-3.72-0.41-7.39-0.99-11.06c-0.42-2.68-1.45-5.18-2-7.81c-0.25-1.21-0.69-2.41-1.32-3.44c-0.53-0.86-1.06-1.81-1.61-2.67
					C9.01,480.69,8.43,479.7,7.89,478.69z"/>
				<path class="st4" d="M27.99,493.91c-2.29-4.37-3.41-9.45-1.17-14.16c2.12-4.45,6.86-7.54,11.79-7.69
					c8.5-0.25,14.94,7.09,21.39,12.63c7.7,6.61,19.18,11.26,27.77,5.86c2.81-1.77,4.95-4.42,7.62-6.4
					c6.03-4.46,15.25-4.69,20.72,0.44c2.37,2.22,3.89,5.17,5.73,7.85c5.53,8.05,14.02,13.65,19.87,21.47
					c4.2,5.61,6.95,12.29,7.91,19.23c0.55,3.97,0.47,8.22-1.54,11.69c-3.29,5.68-10.59,7.51-17.14,7.86
					c-11.76,0.63-24.2-1.66-34.88,3.29c-3.98,1.84-7.5,4.62-11.61,6.18c-5.56,2.11-11.7,1.81-17.63,1.37
					c-6.91-0.51-13.92-1.18-20.38-3.69c-6.46-2.51-12.39-7.13-15.01-13.55c-4.39-10.79,2.02-20.96,2.19-31.74
					c0.05-2.75-0.3-5.46-0.73-8.17c-0.31-1.98-1.07-3.83-1.48-5.77c-0.19-0.89-0.51-1.78-0.98-2.54c-0.39-0.64-0.78-1.34-1.19-1.97
					C28.82,495.4,28.39,494.67,27.99,493.91z"/>
				<path class="st4" d="M48.09,509.14c-1.48-2.83-2.21-6.12-0.75-9.16c1.37-2.88,4.44-4.88,7.63-4.97
					c5.5-0.16,8.23,10.14,12.4,13.72c4.98,4.28,12.41,7.29,17.97,3.79c1.82-1.14,3.2-2.86,4.93-4.14c3.9-2.88,11.3-8.58,14.84-5.27
					c1.53,1.44,2.52,3.35,3.71,5.08c3.58,5.21,9.07,8.83,12.86,13.89c2.72,3.63,4.5,7.95,5.12,12.44c0.36,2.57,0.3,5.32-0.99,7.56
					c-2.13,3.67-6.85,4.86-11.09,5.09c-7.61,0.41-15.65-1.07-22.57,2.13c-2.58,1.19-4.86,2.99-7.51,4
					c-3.6,1.36-7.57,1.17-11.41,0.89c-4.47-0.33-9.01-0.76-13.18-2.39c-4.18-1.63-8.02-4.61-9.71-8.77
					c-2.84-6.98,1.3-13.56,1.42-20.54c0.03-1.78-0.2-3.53-0.47-5.29c-0.2-1.28-0.7-2.48-0.96-3.73c-0.12-0.58-0.33-1.15-0.63-1.65
					c-0.25-0.41-0.5-0.86-0.77-1.28C48.62,510.1,48.35,509.63,48.09,509.14z"/>
				<path class="st4" d="M68.19,524.37c-0.67-1.28-1-2.78-0.34-4.16c0.62-1.31,2.02-2.22,3.47-2.26c2.5-0.07,4.39,2.09,6.29,3.71
					c2.26,1.94,5.64,3.31,8.16,1.72c0.83-0.52,1.46-1.3,2.24-1.88c1.77-1.31,4.48-1.38,6.09,0.13c0.7,0.65,1.14,1.52,1.68,2.31
					c1.63,2.37,4.12,4.01,5.84,6.31c1.23,1.65,2.04,3.61,2.33,5.65c0.16,1.17,0.14,2.42-0.45,3.44c-0.97,1.67-3.11,2.21-5.04,2.31
					c-3.46,0.19-7.11-0.49-10.25,0.97c-1.17,0.54-2.21,1.36-3.41,1.82c-1.63,0.62-3.44,0.53-5.18,0.4
					c-2.03-0.15-4.09-0.35-5.99-1.09c-1.9-0.74-3.64-2.1-4.41-3.98c-1.29-3.17,0.59-6.16,0.64-9.33c0.01-0.81-0.09-1.6-0.21-2.4
					c-0.09-0.58-0.32-1.13-0.43-1.7c-0.05-0.26-0.15-0.52-0.29-0.75c-0.11-0.19-0.23-0.39-0.35-0.58
					C68.43,524.81,68.31,524.59,68.19,524.37z"/>
			</g>
			<path class="st5" d="M-55.62,55.47c-2.96,4.41-3.21,9.75-3.75,14.92c-0.39,3.74-0.74,7.47-0.86,11.23
				c-0.2,6.37,0.79,11.84,2.91,17.84c3.76,10.68,9.52,20.84,18.03,28.5c4.36,3.93,9.18,7.55,14.29,10.46
				c5.36,3.05,10.54,4.54,16.66,4.61c4.61,0.05,8.67-0.27,13.13-1.68c5.52-1.74,10.53-4.2,15.86-6.41
				c24.35-10.11,52.96-14.6,76.98-1.21c23.08,12.86,36.88,37.67,57.83,53.78c17.47,13.43,39.34,20.26,61.27,22.45
				c17.61,1.76,37.44-0.18,49.46-13.18c12.61-13.64,12.32-34.33,17.34-52.23c9.4-33.55,37.86-57.56,62.99-81.69
				c21.95-21.07,68.19-72.32,39.62-103.2c-4.12-4.45-8.84-8.08-13.4-12.04c-3.77-3.27-7.47-6.46-11.79-9.02
				c-3.88-2.3-8.04-4.07-12.11-5.98c-4.45-2.09-8.35-3.63-13.11-4.64c-5.32-1.14-10.56-1.9-16-2.32c-9.34-0.72-18.1,2.2-26.96,4.82
				c-6.17,1.83-12.06,3.93-17.94,6.52c-6.23,2.74-12.6,4.84-19.01,7.12c-10.71,3.81-21.17,8.43-32.17,11.43
				c-12.33,3.36-24.48,6.35-37.13,8.39c-4.76,0.77-9.54,1.6-14.35,1.99c-6.66,0.55-13.51,0.1-20.19,0.1
				c-6.77,0-13.62,0.38-20.38-0.1c-6.66-0.47-13.25-1.79-19.66-3.62c-4.91-1.4-9.75-2.86-14.71-4.07
				c-6.13-1.5-12.08-3.71-18.28-4.94c-5.72-1.13-11.14-3.52-16.96-4.19c-5.64-0.65-11.67-1.13-17.31-0.61
				c-11.63,1.06-22.48,5.03-33.08,9.68c-6,2.62-11.89,5.54-17.28,9.27c-5.8,4.01-10.47,9.21-14.81,14.74
				c-3.43,4.37-7.19,8.69-9.75,13.65c-1.7,3.29-3.23,6.71-4.78,10.07c-2.24,4.84-3.33,10.16-5.45,15.06
				c-3.68,8.48-5.75,17.5-9.92,25.75c-0.86,1.7-2.16,2.78-3.33,4.23c-0.77,0.95-1.06,1.98-1.65,3.03
				C-56.26,55.54-58.56,56.59-55.62,55.47z"/>
			<path class="st6" d="M487.17,535.4c2.2-22.41,13.15-45.8,30.98-57c19.08-11.99,43.2-10.82,65.73-11.38
				c22.53-0.56,47.72-4.74,61.02-22.93c11.15-15.24,10.57-36.14,6.23-54.52c-4.34-18.38-11.93-36.13-13.32-54.97
				c-0.42-5.72,0.18-12.38,4.86-15.7c3.3-2.34,7.68-2.29,11.55-3.49c10.51-3.25,15.62-14.74,20.52-24.59
				c6.14-12.33,13.87-23.87,22.94-34.24c7.94-9.07,17.33-17.5,28.89-20.92c14.78-4.37,32.02,1.95,37.14,17.32
				c1.97,5.93,4.02,12.08,5.09,18.26c1.17,6.79,1.91,13.75,2.41,20.61c0.74,10.18,1.45,20.34,2.13,30.53
				c0.84,12.49,0.91,25.01,3.15,37.35c2.24,12.42,8.75,24.07,15.56,34.52c6.83,10.48,15.23,19.91,23.09,29.59
				c3.51,4.32,5.14,9.77,8.15,14.43c2.01,3.13,3.79,6.14,5.21,9.58c2.75,6.69,4.04,13.57,3.86,20.82
				c-0.16,6.68-2.5,14.56-6.14,20.12c-1.89,2.89-3.96,5.71-6.14,8.39c-2.17,2.67-4.12,5.36-7.04,7.23
				c-8.01,5.12-17.34,5.47-26.09,8.54c-11.07,3.88-22.34,7.02-33.58,10.38c-11.41,3.41-22.54,7.89-32.03,15.24
				c-7.2,5.58-11.98,13.9-20.71,17.31c-5.25,2.05-10.91,2.83-16.45,3.67c-5.06,0.76-9.9,1.21-15.01,1.22
				c-4.61,0.01-8.65-0.13-13.03-1.78c-5.81-2.19-10.7-6.22-15.98-9.37c-7.57-4.52-16.59-8.21-25.3-9.57
				c-4.56-0.71-9.23-0.91-13.84-0.78c-1.85,0.05-3.52,0.17-5.34,0.61c-2.8,0.68-5.89,1.02-8.6,1.94c-4.35,1.48-8.63,4.12-12.78,6.15
				c-5.4,2.64-10.31,6.17-15.67,8.91c-2.56,1.31-5.12,2.62-7.6,4.08c-3.26,1.91-5.96,4.48-8.98,6.71
				c-3.63,2.68-8.14,4.02-12.05,6.25c-4.74,2.69-9.42,4.35-14.72,5.58c-2.85,0.66-5.88,1.5-8.7,0.24c-1.6-0.71-2.73-1.95-4.02-3.06
				c-1.75-1.51-3.59-2.48-5.42-3.82c-2.24-1.64-3.97-4.41-5.15-6.88c-1.28-2.68-3.26-5.3-3.85-8.23
				C486.69,550.79,486.41,543.15,487.17,535.4z"/>
			<path class="st6" d="M337.52,467.65c-3.49-0.58-7.04-1.64-10.65-3.2c-27.88-12.03-33.09-39.75-47.32-63.49
				c-3.3-5.51-7.03-10.73-11.46-15.4c-17.28-18.22-45.99-25.93-56.92-50.04c-5.21-11.48-4.51-26.29,4.25-35.35
				c8.83-9.15,23.05-10.35,35.7-9.04c12.65,1.31,25.45,4.53,37.92,2.03c18.52-3.7,32.46-19.06,41.66-34.68
				c9.88-16.77,10.89-34.44,15.43-52.91c3.47-14.12,10.48-27.71,21.65-37.02c11.17-9.3,26.84-13.76,40.75-9.56
				c12.76,3.85,22.72,14.22,35.41,18.31c26.71,8.62,43.08-15.98,64.11-26.97c13.02-6.8,30.52-11.49,45.15-11.43
				c11.21,0.05,22.96,3.94,29.91,12.74c4.45,5.63,6.57,12.72,8.02,19.75c1.01,4.93,1.72,10.14,0.14,14.92
				c-1.1,3.31-3.23,6.18-5.41,8.9c-5.87,7.33-13.03,13.45-18.83,20.78c-20.49,25.88-11.34,65.67-8.72,95.74
				c0.4,4.61,0.72,9.32-0.41,13.8c-3.31,13.1-19.68,24.55-32.37,27.49c-18.14,4.2-36.95-2.3-55.36-1.07
				c-13.42,0.9-27,4.75-37.46,13.21c-28.43,22.97-34.12,65.13-60.29,90.46C362.17,465.5,350.3,469.79,337.52,467.65z"/>
			<path class="st5" d="M475.05-54.76c0.7,4.43,1.04,8.04-0.41,12.31c-6.89,20.17-20.85,37.14-29.89,56.43
				c-8.16,17.4-13.09,37.31-8.12,55.87c4.98,18.56,22.13,34.71,41.31,33.59c19.82-1.15,34.05-18.51,48.95-31.63
				c14.24-12.54,31.07-22.12,49.12-27.96c11.9-3.85,24.29-6.08,36-10.47c22.42-8.4,37.72-27,40.81-50.98
				c0.51-3.97,0.59-7.91,0.5-11.92c-0.11-5.19-2.61-9.73-4.65-14.38c-2.04-4.63-3.42-9.35-6.51-13.43
				c-2.81-3.7-6.53-6.56-10.28-9.26c-2.97-2.13-6.51-3.53-9.71-5.32c-4.31-2.41-9.24-4.23-14.11-5.14
				c-5.11-0.96-10.35-0.56-15.53-0.59c-8.98-0.05-17.45,1.26-26.21,3.12c-3.91,0.83-7.64,1.52-11.43,2.86
				c-4.05,1.44-8.08,2.98-12.11,4.47c-3.83,1.42-7.79,2.62-11.59,4.11c-2.74,1.08-5.32,2.38-8.15,3.25
				c-9.32,2.88-18.51,7.83-28.44,8.34c-2.64,0.14-5.14-0.11-7.67-0.54c-1.77-0.3-3.61-0.74-5.4-0.81c-1.29-0.05-2.6,0.01-3.89,0.02
				C476.6-52.79,474.44-52.29,475.05-54.76z"/>
			<path class="st6" d="M731.55-50.71c-5.61,0.45-12.55-0.07-17.75,2.68C689.16-34.98,672.7,6,665.85,31.29
				c-2.97,10.98-4.88,22.31-9.21,32.83c-4.38,10.65-11.11,20.2-15.44,30.87c-4.48,11.05-6.27,23.19-5.17,35.06
				c0.89,9.56,3.85,19.31,10.51,26.22c10.76,11.17,28.13,12.3,43.6,11.09s31.65-3.94,46.02,1.9c7.75,3.15,14.36,8.61,21.96,12.08
				c12.05,5.5,22.51,2.51,30.92-7.23c3.95-4.57,5.75-9.55,7.13-15.3c0.4-1.66,0.95-3.18,1.5-4.81c0.98-2.9,1.17-5.29,1.15-8.33
				c-0.04-6.36-0.68-12.97-2.25-19.15c-1.09-4.28-2.48-8.11-2.88-12.55c-0.4-4.4-1.1-8.56-1.93-12.91
				c-1.45-7.65-2.2-15.16-2.64-22.94c-0.22-3.9-0.13-7.79-0.13-11.69c0-3.25-0.28-6.61,0.11-9.85c0.73-6,2.16-12,2.51-18.03
				c0.31-5.24,0.98-10.35,1.8-15.52c1.16-7.32,1.47-15.01,1.48-22.41c0-2.82,0.12-5.67-0.12-8.48c-0.44-5.26-2.15-9.97-4.31-14.75
				c-1.4-3.08-2.76-4.9-4.87-7.47c-2.23-2.72-3.97-5.75-6.05-8.57c-4.04-5.48-8.46-10.3-15.1-12.42c-4.84-1.55-9.61-2.05-14.6-2.74
				c-3.58-0.49-7.62-0.31-11.26-0.2c-3.34,0.1-7.85,1.36-10.66,3.22C728.21-50.55,728.54-50.52,731.55-50.71z"/>
			<path class="st6" d="M-73.02,217.56c3.88-8.96,9.43-16.86,16.95-23.07c19.1-15.75,53.38-36.5,78.96-32.87
				c29.71,4.21,47.73,37.35,76.71,45.11c14.66,3.92,30.23,0.79,45.35,2.09c15.12,1.3,31.98,9.77,33.98,24.81
				c1.48,11.15-5.78,21.48-13.39,29.76c-7.61,8.28-16.34,16.5-18.91,27.45c-3.83,16.3,7.24,33.59,2.65,49.7
				c-3.62,12.69-17.79,21.36-30.74,18.8c-11.48-2.27-19.98-11.59-29.57-18.29c-17.07-11.92-39.5-15.83-59.59-10.38
				c-16.05,4.35-30.04,14.12-45.46,20.37c-6.94,2.81-14.55,4.92-21.87,3.36c-10.94-2.33-18.57-12.15-24.01-21.92
				C-78.13,303.41-88.15,252.46-73.02,217.56z"/>
			<path class="st7" d="M-10.99,264.15c0.01,0.22,0.01,0.43,0.02,0.65c0.3,9.93,5.05,18.65,14.28,23.08
				c1.97,0.94,3.85,2.1,5.91,2.81c2.33,0.8,4.68,1.52,7.08,2.09c2.8,0.66,5.19,0.94,8.09,0.83c2.32-0.09,4.29-1.71,5.7-3.43
				c7.68-9.3-1.24-24.56-3.03-34.28c-1.49-8.08,0.23-16.38-0.01-24.58s-3.24-17.32-10.69-20.78c-8.72-4.04-19.44,2.05-23.86,10.58
				c-4.43,8.54-4.24,18.63-3.94,28.24C-11.29,254.29-11.14,259.22-10.99,264.15z"/>
			<path class="st5" d="M-15.79,207.53c0.29,0.02,0.58-0.02,0.84-0.15c0.88-0.45,1.34-1.42,1.86-2.26c3.68-5.96,11.89-6.9,18.88-6.5
				c7.92,0.45,16.5,2.18,21.61,8.26c4.87,5.8,5.32,13.96,6.65,21.41c1.86,10.43,5.92,20.47,11.81,29.28
				c5.3,7.93,12.76,14.58,15.18,24.15c0.88,3.47,0.86,6.52,0.87,10.08c0.01,2.95,0.21,6.03-0.9,8.83
				c-4.26,10.69-13.17,12.28-23.39,11.17c-14.62-1.58-29.23-2.08-43.9-0.89c-2.77,0.23-5.6,0.5-8.3-0.13
				c-5.05-1.19-8.89-5.37-11.43-9.9c-6.42-11.44-6.3-25.36-4.85-38.4c2.13-19.23,6.78-38.17,13.79-56.2
				C-17.2,206.97-16.51,207.46-15.79,207.53z"/>
			<path class="st5" d="M-28.42,203.05c8.03-14.26,26.16-22.63,42.07-18.23c12.69,3.51,22.48,13.58,30.33,24.16
				c7.85,10.58,14.54,22.19,24.23,31.11c8.89,8.18,20.21,14,26.9,24.06c5.77,8.68,7.33,20.02,4.11,29.93
				c-3.22,9.91-11.14,18.18-20.9,21.81c-13.07,4.86-27.56,1.51-41.5,1.55c-15.33,0.05-30.62,4.41-43.68,12.44
				c-2.64,1.62-5.3,3.44-8.37,3.87c-6.43,0.91-10.79-7.39-13.78-11.87c-3.99-6-5.87-12.73-6.76-19.8
				c-1.22-9.74-1.88-19.51-1.85-29.33c0.01-4.77-0.06-9.54-0.03-14.31c0.03-5.4,0.94-10.28,2.12-15.53
				c2.53-11.18,0.87-22.99,4.49-33.97C-30.35,206.89-29.48,204.92-28.42,203.05z"/>
			<path class="st5" d="M107.79,224.31c0.4,0.03,0.81,0.07,1.21,0.12c10.34,1.1,19.44,1.11,29.77,0.57c2.67-0.14,5.46-0.17,7.9,0.93
				c2.57,1.16,4.47,3.45,5.82,5.92c1.57,2.88,2.52,6.2,2.1,9.45c-0.43,3.25-2.39,6.4-5.4,7.71c-3.41,1.49-7.33,0.45-10.96-0.37
				c-11.36-2.57-34.91,1.8-38.57-13.64c-0.99-4.19,0.84-9.45,5.01-10.52C105.68,224.22,106.74,224.23,107.79,224.31z"/>
			<path class="st5" d="M-3.11,244.94c-0.05,0.12-0.11,0.25-0.16,0.37c-1.46,6.96-1.38,14.66,2.48,20.63
				c4.16,6.43,16.2,11.08,19.59,2.23c3.08-8.04-4.12-18.26-2.52-26.71c0.67-3.56,2.03-7.17,1.26-10.71
				c-0.91-4.2-4.82-7.33-9.04-8.19c-2.23-0.45-4.75-0.29-6.49,1.17c-2.66,2.23-2.44,6.27-2.56,9.74
				C-0.69,237.4-1.56,241.32-3.11,244.94z"/>
			<path class="st5" d="M95.9,327.57c0.6,0.68,1.71,1.12,2.63,1.43c4.48,1.5,8.12,4.74,11.7,7.83c3.58,3.09,7.4,6.19,12,7.28
				c4.6,1.09,10.17-0.45,12.26-4.69c1.68-3.4,0.75-7.43,0.08-11.16c-1.22-6.83-1.45-13.84-0.67-20.74c0.23-2.03,0.54-4.12,0-6.09
				c-0.54-1.97-2.23-3.8-4.27-3.76c-3.31,0.06-4.59,4.28-4.93,7.58c-0.66,6.43,0.03,12.75-6.43,16.22
				c-5.89,3.15-12.92,2.5-19.47,2.9c-1.4,0.09-3.2,0.52-3.35,1.92C95.41,326.79,95.59,327.21,95.9,327.57z"/>
			<path class="st5" d="M140.58,336.54c0.02-1-0.04-2.01-0.09-3.01c-0.45-8.18-0.91-16.36-1.36-24.53
				c-0.28-5.11-0.71-10.6-3.95-14.56c-1.98-2.42-5.26-4.07-8.27-3.21c-2.81,0.81-4.66,3.55-5.61,6.32
				c-0.95,2.77-1.26,5.74-2.33,8.46c-2.08,5.32-7.95,10.38-13.92,10.54c-2.79,0.07-5.61,0.01-8.41-0.02
				c-6.78-0.07-11.51,6.62-8.23,12.85c1.89,3.59,5.47,5.92,8.92,8.07c7.62,4.74,15.56,9.48,24.44,10.84c3.68,0.56,7.54,0.51,11-0.86
				c3.46-1.37,6.47-4.19,7.42-7.79C140.46,338.63,140.56,337.59,140.58,336.54z"/>
			<path class="st5" d="M-53.47,419.62c2.75-18.4,19.8-32.6,38.16-35.55s37.27,3.8,52.34,14.7c11.6,8.39,22.56,19.71,36.83,20.8
				c14.13,1.08,26.65-8.26,40.01-12.97c17.4-6.13,38.06-3.85,52.41,7.75c17.04,13.77,22.84,37.5,38.36,52.97
				c8,7.98,18.47,13.63,24.73,23.04c4.35,6.54,6.28,14.34,8.13,21.97c2.29,9.41,4.58,18.82,6.87,28.23"/>
			<path class="st5" d="M-38.77,384.08c10.67-7.67,24.39-10.46,37.47-9.15c13.07,1.31,25.54,6.49,36.68,13.47
				c12.64,7.92,24.58,18.49,39.39,20.29c12.63,1.54,24.97-3.64,36.99-7.84c10.25-3.58,20.86-6.52,31.71-6.89
				c10.85-0.37,22.05,2,30.92,8.26c10.9,7.7,17.19,36.48,25.17,47.17c10.96,14.69,22.94-1.06,37.03,18.23
				c14.54,19.9,16.52,65.38,12.73,83.31"/>
			<path class="st5" d="M71.9,380.2c-6.3-2.7-11.9-6.82-17.04-11.35c-2.83-2.49-5.58-5.16-8.93-6.9c-3.98-2.07-8.58-2.71-12.61-4.68
				c-4.03-1.97-7.66-6.11-6.77-10.51c0.65-3.2,3.54-5.52,6.62-6.6c6.44-2.26,13.58-0.13,19.77,2.76
				c11.23,5.24,21.14,12.91,32.13,18.63c10.99,5.72,23.86,9.46,35.75,5.99c4.09-1.19,7.9-3.19,11.99-4.38
				c2.43-0.71,4.93-1.12,7.44-1.48c2.53-0.37,5.18-0.67,7.59,0.2c2.4,0.87,4.45,3.29,4.02,5.81c-0.34,2.01-2.14,3.51-4.07,4.14
				c-1.94,0.63-4.02,0.55-6.05,0.53c-9.97-0.14-19.96,1.01-29.65,3.39c-4.99,1.22-9.9,2.77-14.69,4.64
				c-3.12,1.22-6.01,2.76-9.41,2.97C82.54,383.67,76.9,382.35,71.9,380.2z"/>
			<path class="st5" d="M42.88,354.62c-1.67-0.29-3.4-0.44-4.93-1.18c-1.53-0.74-2.84-2.25-2.73-3.94c0.15-2.36,2.79-3.71,5.13-4.05
				c7.33-1.07,14.4,3.09,20.08,7.85c5.68,4.76,10.88,10.39,17.71,13.25c2.1,0.88,4.4,1.53,6,3.14c1.61,1.61,2.1,4.63,0.3,6.02
				c-0.84,0.64-1.95,0.78-3.01,0.83c-7.51,0.34-15.84-2.37-19.33-9.22C58.58,360.43,50.27,355.9,42.88,354.62z"/>
			<path class="st5" d="M121.39,19.7c-1.14,1.91-1.78,4.23-1.76,7.03c0.07,8.79,4.61,14.37,13.26,14.5
				c9.91,0.15,20.32,0.46,28.75,6.31c8.34,5.8,13.58,14.84,17.92,23.8c4.66,9.61,14.91,37.84,30.17,32.29
				c3.99-1.45,6.45-5.73,6.79-9.97c0.34-4.23-1.09-8.42-2.91-12.25c-5.75-12.13-16.15-23.29-16.37-37.37
				c-0.03-2.06,0.2-4.21,1.3-5.95c1.77-2.8,5.41-3.89,8.72-3.73c6.86,0.33,13.14,3.89,19.96,4.5c11.25,1,22.14-7.3,24.39-18.31
				c1.54-7.54-1.09-15.8-6.71-21.07c-5.04-4.72-12.14-6.93-19.05-6.69c-8.14,0.29-15.5,3.69-21.12,9.57
				c-4.36,4.57-7.81,9.94-12.13,14.55c-5.76,6.13-14.28,11.62-22.46,6.52c-2.69-1.67-4.97-3.93-7.62-5.66
				C153.2,11.68,128.24,8.24,121.39,19.7z"/>
			<path class="st5" d="M171.52,83.57c-7.86-12.38-16.88-25.39-30.67-30.37c-7.42-2.68-15.77-2.81-22.6-6.76
				c-9.18-5.3-13.62-17.29-10.84-27.52c2.78-10.23,12.13-18.14,22.58-19.98c4.85-0.85,9.85-0.53,14.69,0.35
				c10.56,1.9,20.65,6.39,29.12,12.97c1.47,1.14,3.13,2.41,4.97,2.15c2.38-0.34,3.58-2.95,4.72-5.06
				C201.21-23.43,272.5-20,265.62,25.07c-1.05,6.86-3.36,13.93-8.63,18.44c-7.58,6.48-18.79,5.83-28.61,4.11
				c-3.86-0.68-8.21-1.36-11.38,0.94c-2.51,1.81-3.57,5.13-3.4,8.22c0.17,3.09,1.4,6.01,2.71,8.81c3.79,8.08,8.5,15.94,9.9,24.75
				c1.41,8.81-1.52,19.13-9.5,23.11C196.15,123.73,180.52,97.73,171.52,83.57z"/>
			<path class="st5" d="M150.18,75.32c5.74,6.62,11.06,13.6,15.91,20.9c5.45,8.2,10.55,17.06,18.68,22.62
				c8.61,5.89,19.52,7.28,29.94,7.21c3.62-0.02,7.36-0.23,10.62-1.8c2.93-1.42,5.26-3.85,7.16-6.49c4.96-6.9,7.32-15.62,6.52-24.08
				c-0.62-6.6-3.07-12.89-4.16-19.43c-0.53-3.17-0.7-6.6,0.81-9.43c1.98-3.7,6.25-5.44,10.19-6.89c9.55-3.51,19.81-7.5,25.23-16.11
				c4.59-7.29,4.74-16.46,4.22-25.05c-0.45-7.5-1.38-15.18-4.95-21.79c-6.38-11.79-20.38-17.96-33.78-18.07
				c-13.4-0.11-26.31,4.93-38.27,10.97c-6.63,3.35-13.28,7.09-20.64,8.07c-8.49,1.13-16.97-1.52-25.34-3.36
				c-9.1-1.99-18.58-3.03-27.73-1.28c-9.15,1.75-18,6.55-23.15,14.31c-9.5,14.31-4,34.76,7.63,46.16c5.93,5.81,11.3,6.6,18.89,8.2
				C137.07,61.88,144.24,68.48,150.18,75.32z"/>
			<path class="st5" d="M128.1,25.02c-1,1.69-0.4,4.01,1.02,5.36c1.42,1.35,3.47,1.88,5.43,1.92c1.96,0.04,3.91-0.36,5.86-0.59
				c3.42-0.41,7-0.3,10.13,1.14c3.51,1.61,6.32,4.82,10.13,5.43c0.48,0.08,0.98,0.11,1.42-0.1c0.5-0.23,0.82-0.73,1.05-1.23
				c1.56-3.28,0.41-7.61-2.58-9.68c-3.98-2.76-9.43-1.26-14.17-2.25c-2.34-0.49-4.5-1.59-6.77-2.3
				C136.38,21.69,130.18,21.53,128.1,25.02z"/>
			<path class="st5" d="M211.78,90.91c-0.03,0.47-0.1,0.96-0.36,1.36c-0.26,0.4-0.68,0.66-1.11,0.85c-2.41,1.08-5.35,0.14-7.32-1.63
				c-1.97-1.77-3.17-4.21-4.28-6.61c-1.25-2.7-10.3-18.7-2.93-18.01c2.37,0.22,3.24,3.06,4.26,4.82c1.87,3.21,4.51,5.9,6.87,8.74
				C209.37,83.41,211.99,86.85,211.78,90.91z"/>
			<path class="st5" d="M222.69,30.63c-1.52-0.72-2.98-1.68-3.89-3.09c-1.2-1.86-1.27-4.21-1.29-6.42
				c-0.03-2.43-0.06-4.85-0.09-7.28c-0.04-2.93,0.04-6.19,2.06-8.32c0.56-0.6,1.27-1.08,2.07-1.24c1.73-0.36,3.42,0.8,4.62,2.1
				c1.2,1.3,2.24,2.84,3.81,3.65c2.64,1.35,6.01,0.24,8.71,1.46c3.41,1.54,4.29,6.02,3.91,9.74c-0.44,4.31-2.47,9.65-7.09,11.03
				C231.67,33.4,226.18,32.28,222.69,30.63z"/>
			<path class="st5" d="M-40.22,72.38c0.24,9.51,4.25,18.6,9.63,26.44c3.23,4.71,7.04,9.13,11.88,12.15
				c4.84,3.02,10.83,4.51,16.36,3.1c2.24-0.57,4.33-1.58,6.41-2.59c2.76-1.34,5.52-2.68,8.28-4.02c3.42-1.66,7.09-3.57,8.65-7.04
				c1.86-4.13-0.05-9.15-3.23-12.38c-3.18-3.23-7.42-5.14-11.4-7.32c-1.39-0.76-2.79-1.6-3.71-2.89c-0.98-1.37-1.29-3.11-1.44-4.79
				c-0.5-5.68,0.52-11.76-2.14-16.8c-2.46-4.64-7.65-7.33-12.85-8.09c-5.35-0.79-14.67-1.12-18.85,3.04
				C-38,56.56-40.4,64.96-40.22,72.38z"/>
			<path class="st5" d="M-34.85,28.21c3.42-1.56,7.39-1.59,11.07-0.79c3.68,0.79,7.14,2.36,10.56,3.93
				c3.74,1.71,7.51,3.45,10.72,6.02c4,3.2,7,7.65,8.46,12.56c1.23,4.13,1.39,8.52,2.65,12.65c1.26,4.14,3.62,7.94,6.77,10.9
				c4.9,4.6,11.73,7.3,15.19,13.06c1.88,3.12,2.54,6.81,2.92,10.43c0.32,3.09,0.46,6.28-0.53,9.22c-1.02,3.05-3.17,5.58-5.26,8.02
				c-1.88,2.2-3.81,4.43-6.24,5.99c-3.43,2.2-7.6,2.89-11.65,3.29c-7.81,0.76-15.67,0.61-23.51,0.46c-0.42-0.01-0.96-0.11-1.04-0.52
				c-0.08-0.41,0.84-0.32,0.55-0.02"/>
			<path class="st5" d="M-23.6-0.74c3.55-0.26,7.26-0.49,10.55,0.88c2.7,1.12,4.86,3.23,6.83,5.39c4.89,5.39,9.01,11.48,12.19,18.02
				c4.85,9.99,7.62,21.16,14.46,29.9c2.32,2.96,5.63,5.79,9.37,5.34c2.71-0.33,4.97-2.4,6.2-4.84c1.24-2.43,1.61-5.2,1.88-7.92
				c0.92-9.6,0.63-19.36,2.82-28.75c1.33-5.7,3.8-11.49,8.59-14.84c2.18-1.53,4.74-2.48,6.8-4.16c4.51-3.68,5.74-9.96,6.66-15.71"/>
			<path class="st5" d="M-14.31-6.53C-5.42-3.59,3.17,1.27,8.57,8.92c4.31,6.1,6.28,13.49,9.05,20.43c0.71,1.76,1.5,3.56,2.87,4.87
				c1.37,1.32,3.45,2.06,5.22,1.36c1.75-0.69,2.72-2.55,3.32-4.34c1.63-4.85,1.6-10.08,1.53-15.19c-0.07-5.12-0.15-10.34,1.39-15.21
				C33.5-4.04,37-8.6,41.92-10.02"/>
			<path class="st5" d="M41.3,85.04c-0.45-1.81-0.82-3.68-0.55-5.52c0.27-1.84,1.28-3.67,2.96-4.48c3.27-1.57,7.63,1.13,10.62-0.92
				c0.78-0.54,1.37-1.36,2.23-1.74c1.84-0.82,3.84,0.65,5.31,2.03c3.9,3.66,7.74,7.45,10.74,11.88c3.01,4.43,5.16,9.57,5.33,14.91
				c0.12,3.78-1.02,7.96-4.21,9.99c-1.35,0.86-2.95,1.25-4.51,1.6c-4.71,1.05-9.47,1.87-14.27,2.44c-3.98,0.48-6.83,1.44-7.31-3.19
				C46.65,102.53,43.6,94.26,41.3,85.04z"/>
			<path class="st5" d="M46.87,88.15c-0.25-1.02-0.44-2.23,0.28-3c0.41-0.44,1.03-0.61,1.63-0.61c1.24-0.01,2.38,0.61,3.57,0.96
				c1.19,0.35,2.67,0.33,3.43-0.65c0.3-0.38,0.43-0.86,0.69-1.27c0.76-1.19,2.44-1.53,3.79-1.12c1.36,0.41,2.45,1.39,3.46,2.38
				c3.57,3.51,6.75,7.8,7.32,12.78c1,8.82-6.94,13.89-14.84,10.73C49.68,105.74,48.32,94.07,46.87,88.15z"/>
			<path class="st5" d="M337.87,40.74c7.46-6.13,13.3-13.96,19.06-21.7c4.95-6.66,9.99-13.47,12.53-21.36
				c1.56-4.84,2.13-9.94,2.49-15.01c0.25-3.49,0.4-7.06-0.5-10.45c-0.95-3.57-3.01-6.74-5.03-9.83c-2.43-3.7-4.98-7.53-8.77-9.83
				c-2.72-1.65-5.88-2.37-8.99-3.05c-13.25-2.87-26.72-5.18-40.27-4.92c-13.55,0.27-27.28,3.23-38.87,10.26
				c-3.82,2.32-7.82,6.12-6.89,10.49c0.62,2.9,3.37,4.98,6.26,5.64c2.89,0.67,5.91,0.19,8.82-0.38c7.75-1.53,15.37-3.76,23.19-4.9
				s16-1.14,23.39,1.68c7.38,2.82,13.85,8.83,15.71,16.51c1.79,7.4-0.83,15.22-4.72,21.76c-3.89,6.54-9.04,12.27-13.02,18.76
				c-4.18,6.82-8.92,18.35-3.63,25.85c2.86,4.07,5.55,1.47,8.42-1.05C330.51,46.2,334.33,43.65,337.87,40.74z"/>
			<path class="st5" d="M281.54-41.73c-0.86,0.85-1.69,2.24-0.88,3.14c0.35,0.39,0.91,0.52,1.43,0.61
				c6.45,1.09,12.95-0.96,19.34-2.35c8.81-1.92,18.12-2.58,26.75,0.04c8.63,2.62,16.47,8.94,19.17,17.54
				c2.13,6.75,0.94,14.17-1.7,20.74c-2.64,6.56-6.66,12.46-10.41,18.46c-1.03,1.64-2.06,3.37-2.25,5.3
				c-0.19,1.93,0.73,4.11,2.56,4.73c2.6,0.89,5.05-1.61,6.54-3.91c2.7-4.16,4.93-8.63,6.64-13.29c1.1-3.02,1.99-6.12,3.27-9.07
				c1.08-2.5,2.45-4.87,3.35-7.44c3-8.58,0.27-18.48-5.55-25.46c-5.82-6.97-14.34-11.27-23.13-13.57
				C312.33-50.02,293.16-53.17,281.54-41.73z"/>
			<path class="st5" d="M323.94-3.5c-11.16,13.66-17.34,31.32-17.12,48.96c0.08,6.64,1.58,14.15,7.22,17.66
				c6.34,3.95,14.67,0.9,21.01-3.05c23.7-14.79,38.5-40.81,46.18-67.67"/>
			<g>
				<g>
					<path class="st8" d="M506.42,544.11c-0.02-0.33-0.04-0.67-0.05-1"/>
					<path class="st9" d="M506.26,539.11c-0.14-11.42,1.4-22.86,4.55-33.84c1.3-4.53,3.03-9.21,6.65-12.23
						c3.59-2.98,8.43-3.84,13.05-4.54c23.37-3.54,46.94-5.75,70.56-6.62c11.56-0.43,23.87-0.76,33.41-7.29
						c6.59-4.51,11.04-11.46,15.1-18.33c13.74-23.22,25.54-50.38,18.82-76.51c-2.12-8.26-6.03-16.02-7.69-24.39
						c-1.66-8.37-0.55-18.07,5.82-23.74c2.83-2.51,6.4-3.98,9.68-5.85c5.45-3.09,10.24-7.36,13.93-12.43
						c8.72-11.96,11.07-27.72,20.12-39.43c7.29-9.43,18.77-15.49,30.68-16.19c10.9-0.64,21.98,3.24,30.18,10.44"/>
					<path class="st8" d="M772.58,269.53c0.24,0.23,0.48,0.47,0.71,0.71"/>
				</g>
			</g>
			<path class="st5" d="M768.72,440.93c-27.92-6.25-49.01-28.49-68.28-49.63c-10.79-11.85-22.33-25.77-20.76-41.72
				c0.2-2.04,0.7-4.2,2.21-5.57c1.35-1.22,3.23-1.58,4.97-2.09c10.92-3.21,18.29-13.48,22.67-23.98
				c4.38-10.5,6.67-21.87,11.99-31.93c1.84-3.48,4.19-6.92,7.7-8.71c2.91-1.48,6.28-1.66,9.54-1.82
				c10.16-0.48,20.31-0.96,30.47-1.44"/>
			<path class="st5" d="M773.99,477.31c-18.91-17.67-39.72-33.31-61.95-46.56c-4.24-2.53-8.91-5.06-13.82-4.52
				c-7.76,0.84-12.51,8.64-16.34,15.44c-13.53,23.99-32.08,47.31-58.28,55.82c-8.23,2.67-16.93,3.77-25.59,3.7
				c-9.39-0.07-18.9-1.48-28.09,0.46c-16.75,3.53-30.17,19.15-31.13,36.24"/>
			<path class="st5" d="M763.26,491.86c-10.78-9.65-21.56-19.31-32.35-28.96c-7.26-6.5-15.8-13.43-25.47-12.33
				c-10.09,1.15-17.05,10.65-21.14,19.95s-6.9,19.64-14.2,26.69c-2.87,2.77-6.3,4.88-9.7,6.97c-12.22,7.51-24.45,15.02-36.67,22.53"
				/>
			<path class="st5" d="M674.67,515.4c7.96-3.66,11.27-13.02,13.71-21.43c2.44-8.42,5.55-17.78,13.38-21.7
				c7.86-3.94,17.58-0.65,24.53,4.73c6.94,5.39,12.2,12.67,18.97,18.28c5.84,4.84,12.76,8.36,20.11,10.23"/>
			<path class="st5" d="M768.53,415.91c-21.94-1.67-41.37-14.6-58.18-28.8c-5.77-4.87-11.53-10.17-14.58-17.08
				c-3.05-6.91-2.7-15.86,2.76-21.09c4.26-4.08,10.61-5.12,15.37-8.59c10.16-7.4,10.01-22.77,17.53-32.84
				c6.85-9.17,20.42-12.56,30.78-7.69c1.58,0.74,2.6,3.7,0.86,3.55"/>
			<path class="st5" d="M763.54,393.42c-11.26-1.8-22.1-6.13-31.5-12.57c-4.49-3.07-8.99-7.28-9.25-12.71
				c-0.23-4.85,3.04-9.14,6.51-12.53c3.47-3.39,7.45-6.55,9.38-11c2.35-5.42,1.38-12.2,5.07-16.81c2.34-2.92,6.16-4.32,9.89-4.55
				c3.73-0.23,7.43,0.58,11.08,1.38c0.2,1.3-0.28,2.69-1.23,3.6"/>
			<path class="st5" d="M682.71,398.17c0.32-2.42,0.87-5.2,3.01-6.37c2.43-1.33,5.58,0.32,7.07,2.67s1.86,5.2,2.7,7.85
				c0.58,1.85,1.41,3.69,1.32,5.62c-0.19,3.83-3.83,6.51-7.34,8.05C675.43,422.14,681.49,407.42,682.71,398.17z"/>
			<g>
				<path class="st10" d="M646.92,270.78c-4.09,4.23-8.96,8.51-14.83,8.66c-5.13,0.13-9.83-2.99-13.33-6.75
					c-3.5-3.76-6.16-8.23-9.65-12c-4.79-5.17-10.95-8.85-16.24-13.51c-5.29-4.66-9.91-10.91-9.9-17.96
					c0.01-13.91,16.6-21.48,22.57-34.04c4.24-8.91,2.67-19.34,3.43-29.18c0.36-4.67,1.71-9.93,5.86-12.09
					c3.82-1.99,8.65-0.48,11.96,2.26c3.32,2.74,5.57,6.52,8.22,9.9c6.51,8.3,15.77,14.4,25.96,17.1c9.44,2.51,20.01,2.36,27.89,8.13
					c8.21,6,11.21,18.15,6.72,27.29c-5.26,10.71-17.12,12.56-24.29,20.51C662.45,248.94,656.31,261.08,646.92,270.78z"/>
			</g>
			<path class="st5" d="M635.74,267.48c-4.52,1.16-9.3-1.06-12.8-4.15c-3.5-3.09-6.15-7.03-9.46-10.32
				c-4.54-4.51-10.3-7.75-14.36-12.7c-4.06-4.95-5.93-12.72-1.73-17.56c2.67-3.08,6.99-4.08,10.41-6.32
				c8.34-5.46,9.87-17.06,8.91-26.98c-0.37-3.82-0.97-7.77,0.14-11.45c1.11-3.68,4.6-6.99,8.4-6.42c2.75,0.42,4.81,2.65,6.79,4.61
				c7.61,7.59,17.33,13.05,27.78,15.6c6.67,1.63,13.95,2.23,19.39,6.42c8.33,6.42,8.45,20.85,0.23,27.41
				c-6.35,5.07-15.69,5.33-21.64,10.86C649.74,243.94,647.19,264.54,635.74,267.48z"/>
			<path class="st5" d="M607.29,229.99c1.36-6.02,7.9-9.21,11.42-14.29c4.05-5.84,3.72-13.54,3.46-20.64
				c-0.09-2.33-0.05-4.93,1.54-6.64c1.71-1.83,4.68-1.92,6.99-0.95c2.31,0.97,4.13,2.79,6,4.46c5.31,4.77,11.55,8.77,18.54,10.22
				c5.27,1.09,11.82,1.35,14.23,6.16c2.03,4.06-0.49,9.1-4.09,11.86c-3.6,2.76-8.1,4.03-12.09,6.2c-5.99,3.26-10.67,8.61-13.3,14.88
				c-2.05,4.88-1.34,12.28-7.52,13.47C622.78,256.59,605.18,239.36,607.29,229.99z"/>
			<path class="st5" d="M626.66,226.14c1.27-1.8,2.75-3.52,3.42-5.62c0.71-2.21,0.45-4.59,0.37-6.91c-0.07-2.32,0.11-4.81,1.52-6.65
				c1.41-1.84,4.43-2.59,6.07-0.94c0.76,0.76,1.09,1.88,1.86,2.62c2.39,2.32,7.05-0.27,9.48,2.01c0.59,0.56,0.94,1.34,1.13,2.13
				c1.03,4.44-2.73,8.54-6.58,10.98c-3.85,2.44-8.37,4.46-10.45,8.52C628.67,241.64,621.66,233.23,626.66,226.14z"/>
			<path class="st5" d="M376.67,495.3c2.06-11.11,12.22-18.51,19.25-27.35c11.73-14.75,15.24-34.71,26.78-49.62
				c2.16-2.79,4.92-5.55,8.43-5.91c5.61-0.57,9.77,5.1,11.82,10.35c2.05,5.25,3.69,11.35,8.59,14.15c6.19,3.54,15.82,0.6,19.76,6.56
				c1.22,1.84,1.5,4.15,1.43,6.36c-0.36,11.78-9.26,21.25-17.02,30.12c-7.76,8.87-15.33,20.16-12.39,31.57"/>
			<path class="st5" d="M384.45,500.04c3.7-7.92,9.98-14.29,15.44-21.12c9.38-11.73,16.57-25.21,21.08-39.53
				c0.96-3.05,1.83-6.2,3.57-8.88c1.74-2.69,4.57-4.9,7.78-4.98c4.58-0.12,8.1,3.91,10.58,7.76c2.48,3.85,5.03,8.24,9.4,9.61
				c2.04,0.64,4.31,0.54,6.24,1.48c3.74,1.83,4.7,7,3.3,10.92c-1.39,3.93-4.46,6.97-7.19,10.12c-7.47,8.65-12.86,19.07-15.59,30.17
				c-0.36,1.46-2.21,3.22-2.88,1.86"/>
			<path class="st5" d="M397.15,502.65c8.15-11.14,15.36-22.97,21.55-35.31c3.37-6.73,6.59-13.81,12.19-18.83
				c1.67-1.49,3.82-2.85,6.01-2.37c1.37,0.3,2.48,1.27,3.65,2.06c2.64,1.79,5.84,2.74,9.03,2.67c0.81-0.02,1.7-0.08,2.36,0.4
				c1.21,0.87,0.8,2.75,0.15,4.08c-2.13,4.33-5.52,7.88-8.53,11.66c-8.44,10.61-14.06,23.45-16.12,36.85"/>
			<path class="st5" d="M411.51,497.8c2.22-5.84,4.7-11.58,7.43-17.2c3.62-7.44,7.92-14.94,14.79-19.54c1-0.67,2.72-1.07,3.13,0.06
				c0.13,0.36,0.05,0.76-0.04,1.13c-1.21,4.73-4.88,8.34-7.92,12.16c-6.76,8.49-10.9,19.05-11.69,29.87"/>
			<path class="st5" d="M192.7,392.99c4.82,8.93,8.05,18.7,13.53,27.23c1.1,1.71,2.38,3.45,4.26,4.24
				c6.07,2.55,10.79-5.99,16.95-8.29c5.27-1.97,11.23,1.06,14.96,5.26c3.74,4.2,6.02,9.49,9.38,14c3.85,5.18,9.13,9.29,15.09,11.76
				c4.14,1.71,9.76,2.23,12.32-1.45c1.93-2.78,1.08-6.57-0.04-9.76c-5.42-15.37-15.67-29.01-28.93-38.49
				c-7.39-5.28-15.68-9.31-22.56-15.22c-5.58-4.79-10.09-10.69-15.03-16.14c-4.94-5.45-10.54-10.6-17.4-13.25
				c-6.86-2.65-15.25-2.37-20.93,2.3c-6.62,5.43-6.92,14.54-0.61,19.31C181.52,380.42,187.56,383.46,192.7,392.99z"/>
			<path class="st5" d="M202.3,364.18c-5.38-4.38-12.39-7.81-19.1-6.03c-1.18,0.31-2.35,0.8-3.25,1.62
				c-2.1,1.91-2.31,5.28-1.21,7.89c1.1,2.62,3.24,4.64,5.41,6.47c5.68,4.82,12.1,9.17,15.79,15.64c4.48,7.87,4.55,18.25,11.05,24.55
				c0.82,0.79,1.82,1.53,2.96,1.49c1.28-0.04,2.3-1.04,3.27-1.88c5.23-4.52,13.16-5.61,19.42-2.67c3.94,1.85,7.06,5.04,10.33,7.91
				c3.28,2.87,7.02,5.56,11.35,6.02c0.45,0.05,0.95,0.07,1.33-0.18c0.27-0.17,0.45-0.44,0.62-0.71c2.34-3.89,1.34-9.09-1.23-12.83
				c-2.58-3.74-6.46-6.34-10.24-8.85c-9.74-6.46-19.49-12.93-29.23-19.39c-3.88-2.57-5.2-5.52-7.83-9.11
				C209.04,370.44,205.86,367.08,202.3,364.18z"/>
			<path class="st6" d="M212.85,404.61c-1.43-1.79-2.26-3.98-3.17-6.08c-2.6-6-6.1-11.61-10.33-16.59
				c-2.32-2.73-4.87-5.27-6.95-8.18c-1.04-1.46-1.89-3.67-0.56-4.87c1.26-1.13,3.25-0.25,4.6,0.78c4.96,3.78,8.57,9,12.43,13.89
				c3.86,4.89,8.26,9.68,14.03,12.03c2.58,1.05,5.84,2.1,6.29,4.85c0.33,2-1.24,3.93-3.11,4.7c-2.25,0.93-5.11,1.3-7.41,1.98
				C216.39,407.79,214.33,406.46,212.85,404.61z"/>
			<path class="st5" d="M270.91,520.62c-2.67-11.81-6.44-23.38-11.23-34.5c-2.78-6.44-5.95-12.91-6.46-19.9
				c-0.16-2.12,0.06-4.52,1.68-5.9c1.35-1.15,3.36-1.23,5.05-0.7c1.69,0.53,3.16,1.6,4.64,2.58c2.45,1.63,5.01,3.1,7.66,4.38
				c3.3,1.6,7.65,2.76,10.31,0.23c1.54-1.47,2.28-4.04,4.37-4.49c1.7-0.36,3.26,0.96,4.52,2.16c4.51,4.34,9.16,8.53,13.94,12.56
				c3.77,3.18,7.9,6.37,12.8,6.99c3.7,0.47,7.55-0.6,11.13,0.45c2.35,0.69,4.36,2.23,6.01,4.04c5.58,6.13,7.1,14.89,7.75,23.16
				c0.02,0.28,0.01,0.62-0.24,0.75c-0.25,0.13-0.51-0.38-0.23-0.4"/>
			<path class="st5" d="M276.63,512.96c-2.94-5.22-5.63-10.58-7.95-16.1c-1.04-2.46-2-4.96-2.96-7.45c-1.02-2.63-2.03-5.27-3.05-7.9
				c-1.32-3.42-2.66-6.92-2.85-10.58c-0.02-0.4-0.02-0.83,0.19-1.18c0.54-0.89,1.9-0.57,2.8-0.04c1.85,1.08,3.44,2.54,5.16,3.83
				c4.37,3.27,9.62,5.35,15.05,5.97c1.66,0.19,3.67,0.08,4.56-1.33c0.99-1.57,0.24-4.24,1.93-5.01c1.02-0.47,2.19,0.22,3.06,0.94
				c3.55,2.93,6.19,6.8,9.26,10.23c3.07,3.43,6.86,6.58,11.41,7.3c2.4,0.38,4.88,0.07,7.24,0.61c3.11,0.71,5.83,2.97,7.1,5.9
				c0.82,1.89,1.05,3.97,1.68,5.93c0.83,2.55,2.35,4.83,3.28,7.35c0.16,0.43-0.04,1.19-0.44,0.96"/>
			<path class="st5" d="M285.51,511.44c-3.57-6.43-7.14-12.86-10.72-19.3c-1.24-2.23-2.52-4.7-2.09-7.21
				c1.17-0.65,2.59,0.14,3.72,0.86c1.88,1.19,3.89,2.25,6.08,2.6c2.19,0.35,4.61-0.09,6.23-1.61c1.26-1.19,2.46-3.12,4.14-2.69
				c0.69,0.18,1.2,0.74,1.66,1.29c2.19,2.62,4.27,5.61,7.45,6.89c1.47,0.6,3.09,0.77,4.56,1.36c3.01,1.2,5.11,3.97,6.58,6.86
				c1.47,2.89,2.47,6.01,4.14,8.78"/>
			<path class="st5" d="M293.62,509.69c-2.8-3.17-4.94-6.93-6.22-10.96c-0.29-0.92-0.55-1.88-0.43-2.84
				c0.11-0.96,0.67-1.92,1.57-2.26c1.35-0.51,2.75,0.47,4.16,0.77c1.36,0.29,2.77-0.07,4.16,0.01c3.07,0.19,5.59,2.55,7.28,5.12
				c1.99,3.02,3.24,6.53,3.61,10.13"/>
			<path class="st5" d="M348.35,483.64c1.08,0.27,2.17,0.54,3.28,0.46c3.55-0.24,5.88-3.75,9.02-5.43c0.82-0.44,1.86-0.75,2.66-0.27
				c0.93,0.56,1.03,1.87,0.81,2.93c-0.88,4.11-4.76,6.74-7.46,9.97c-0.78,0.94-1.52,1.98-2.6,2.55c-1.36,0.71-3.05,0.52-4.44-0.12
				c-1.39-0.64-2.55-1.69-3.68-2.72c-1.6-1.45-3.19-2.9-4.79-4.35c-1.71-1.55-2.69-4.25,0.38-4.68
				C343.59,481.68,346.36,483.15,348.35,483.64z"/>
			<path class="st5" d="M221.3,432.44c1.15-1.19,1.9-2.72,2.97-3.99c1.9-2.25,4.82-3.61,7.76-3.61c0.77,0,1.57,0.1,2.24,0.48
				c1.17,0.68,1.68,2.08,2.15,3.35c1.91,5.16,4.69,10,8.18,14.26c0.91,1.11,1.93,2.45,1.51,3.83c-0.33,1.09-1.54,1.75-2.68,1.74
				c-1.14-0.01-2.22-0.55-3.16-1.19c-3.42-2.31-5.79-6.04-9.46-7.93c-3.85-1.97-8.45-1.59-12.62-2.72
				c-1.18-0.32-2.64-1.31-1.42-2.42c0.42-0.38,1.58-0.14,2.11-0.31C219.81,433.64,220.62,433.14,221.3,432.44z"/>
			<path class="st5" d="M152.61,347.37c-1.77,2.21-3.34,5.39-1.7,7.7c0.91,1.28,2.52,1.8,3.9,2.55c3.14,1.69,5.41,4.91,5.94,8.44
				c0.14,0.94,0.47,2.19,1.42,2.15c0.98-0.03,1.2-1.38,1.12-2.36c-0.35-4.68-0.31-9.55,1.54-13.86c1.85-4.31,5.88-7.97,10.57-8.13
				c2.76-0.1,5.41,0.98,8.05,1.79c2.69,0.83,5.47,1.39,8.27,1.69c1.3,0.14,2.76,0.16,3.74-0.7c0.98-0.87,1.12-2.33,1.13-3.64
				c0.04-8.4-2.78-16.79-7.9-23.46c-1.04-1.35-2.29-2.71-3.95-3.06c-2.01-0.43-4.07,0.75-5.38,2.34c-1.31,1.58-2.08,3.53-3.06,5.34
				c-0.98,1.81-2.31,3.57-4.23,4.31c-2.34,0.9-4.94,0.08-7.38-0.48c-2.44-0.56-5.36-0.73-7.11,1.07c-1.36,1.4-1.55,3.53-1.51,5.48
				C156.17,339.92,156.15,342.95,152.61,347.37z"/>
			<path class="st5" d="M156.03,347.13c1.42-1.52,3.2-2.9,3.76-4.91c0.41-1.49,0.07-3.07-0.01-4.61c-0.07-1.54,0.24-3.3,1.53-4.16
				c0.71-0.48,1.6-0.59,2.46-0.6c3.27-0.03,6.98,1.18,9.54-0.86c2.12-1.69,2.57-5.1,5.02-6.28c1.6-0.77,3.58-0.24,4.99,0.84
				c1.41,1.08,2.37,2.63,3.3,4.15c1.4,2.29,2.84,4.69,3.06,7.36c0.06,0.7,0.02,1.43-0.32,2.04c-0.84,1.52-2.97,1.56-4.7,1.37
				c-4.64-0.5-9.4-1.25-13.94-0.15c-4.54,1.1-8.89,4.6-9.3,9.26c-0.31,3.49-0.58,7.34-4.45,4.42
				C153.91,352.68,153.1,350.27,156.03,347.13z"/>
			<path class="st5" d="M162.14,283.1c1.6-6.22,5.4-11.96,10.87-15.32c2.8-1.72,5.97-2.8,8.72-4.61c3.66-2.41,6.45-6.13,7.74-10.31
				c1.26-4.07,1.12-8.43,1.72-12.65c0.43-3.04,1.25-6.02,2.42-8.85c0.51-1.23,1.2-2.54,2.44-3c1.11-0.42,2.41-0.01,3.31,0.77
				c0.9,0.78,1.46,1.87,1.92,2.97c1.83,4.46,2.06,9.39,2.77,14.16c0.7,4.77,2.03,9.73,5.46,13.12c2.29,2.26,5.37,3.66,7.46,6.11
				c2.36,2.77,3.13,7,1.35,10.17c-1.91,3.41-6.02,4.86-8.86,7.55c-4.62,4.37-5.35,11.31-7.37,17.34c-0.6,1.78-1.45,3.65-3.1,4.54
				c-1.89,1.01-4.28,0.4-6.07-0.77c-1.79-1.17-3.2-2.83-4.87-4.18c-1.67-1.34-3.79-2.4-5.89-2c-1.49,0.28-2.75,1.25-3.94,2.2
				c-1.53,1.21-3.06,2.41-4.59,3.62c-2.41,1.9-4.78,2.97-7.62,1.2c-1.65-1.03-3.12-2.51-3.71-4.39
				C160.63,295.36,160.74,288.53,162.14,283.1z"/>
			<g>
				<path class="st11" d="M165.53,284.45c1.19-4.94,3.91-9.98,8.64-11.84c2.23-0.88,4.69-0.96,6.99-1.63
					c3.44-1.01,6.33-3.29,9.13-5.53c0.91-0.72,1.83-1.47,2.42-2.47c0.55-0.93,0.76-2.02,0.97-3.09c0.77-4.02,1.54-8.03,2.31-12.05
					c0.09-0.46,0.22-0.98,0.64-1.19c0.74-0.38,1.46,0.53,1.77,1.3c2.05,5.16,2.31,11.19,5.85,15.47c2.1,2.54,5.41,4.67,5.44,7.96
					c0.02,2.14-1.42,4.01-3.02,5.43c-1.6,1.42-3.44,2.62-4.66,4.37c-1.71,2.44-1.98,5.56-2.37,8.52c-0.39,2.95-1.09,6.11-3.32,8.08
					c-0.52,0.46-1.16,0.85-1.86,0.84c-0.83-0.01-1.53-0.57-2.15-1.12c-1.55-1.39-2.97-2.92-4.68-4.11c-1.71-1.18-3.79-2-5.85-1.71
					c-5.48,0.76-7.94,10.23-13.36,9.53C162.4,300.42,164.64,288.12,165.53,284.45z"/>
			</g>
			<path class="st5" d="M167.67,291.13c-0.04,0.63-0.04,1.33,0.39,1.79c0.74,0.79,2.05,0.22,2.92-0.42
				c3.58-2.66,6.55-6.21,10.57-8.13c1.2-0.57,2.59-0.99,3.86-0.6c1.27,0.39,2.16,1.5,3.11,2.44c0.95,0.94,2.23,1.79,3.53,1.47
				c1.76-0.44,2.29-2.6,2.84-4.32c0.71-2.24,1.99-4.29,3.67-5.93c0.79-0.77,1.67-1.46,2.24-2.4c0.95-1.57,0.83-3.59,0.21-5.32
				c-0.52-1.47-1.62-2.97-3.18-3.02c-1.1-0.03-2.08,0.69-2.76,1.56c-0.67,0.87-1.12,1.89-1.73,2.79c-2.22,3.26-6.32,4.6-10.19,5.34
				c-3.42,0.65-8.86,0.69-11.83,2.75C167.96,281.46,167.88,287.51,167.67,291.13z"/>
			<path class="st5" d="M98.88,195.89c-9.32-3.71-17.61-9.55-25.79-15.36c-5.5-3.91-10.99-7.83-16.47-11.74
				c-5.43-3.88-10.87-7.76-16.3-11.64c-1.09-0.78-2.2-1.57-3.05-2.6c-3.37-4.08-1.57-10.65,2.42-14.12
				c3.99-3.47,9.45-4.61,14.65-5.53c4.96-0.88,10.01-1.67,15.01-1.05c3.31,0.41,6.52,1.43,9.66,2.55
				c7.5,2.67,14.91,5.99,20.96,11.17c3.06,2.62,5.72,5.67,8.66,8.43c6.15,5.76,13.45,10.14,19.96,15.49
				c5.34,4.39,10.41,9.99,11.11,16.87c0.22,2.16-0.04,4.42-1.08,6.33c-3.15,5.76-11.17,3.9-16.58,4.6
				C114.19,200.29,106.2,198.8,98.88,195.89z"/>
			<path class="st5" d="M44.62,150.88c0.2,2.08,1.21,4.07,2.78,5.46c1.73,1.53,4.01,2.26,6.18,3.04
				c8.28,2.98,16.09,7.25,23.06,12.61c3.87,2.97,7.5,6.29,11.61,8.92c7.05,4.51,15.24,6.85,23.29,9.15
				c3.19,0.91,6.53,1.83,9.79,1.18c3.26-0.65,6.35-3.43,6.15-6.75c-0.17-2.76-2.45-4.91-4.8-6.37c-3.74-2.31-8.03-3.63-11.79-5.9
				c-3.47-2.09-6.42-4.94-9.38-7.7c-10.32-9.61-21.92-18.83-35.76-21.54c-2.95-0.58-6.07-0.83-8.9,0.17
				c-2.95,1.04-5.27,3.16-8.47,3.31C45.7,146.57,44.32,147.78,44.62,150.88z"/>
			<path class="st5" d="M55.16,152.11c-0.02,1.49,1.34,2.63,2.69,3.25c2.28,1.05,4.84,1.3,7.3,1.82c5.76,1.22,11.17,4.06,15.43,8.12
				c2.08,1.98,3.89,4.23,5.93,6.24c4.9,4.84,11.16,8.3,17.87,9.86c1.15,0.27,2.38,0.48,3.51,0.12c1.13-0.36,2.1-1.47,1.92-2.64
				c-0.11-0.69-0.59-1.27-1.08-1.77c-4.4-4.46-10.96-5.9-16.25-9.25c-2.73-1.73-5.11-3.95-7.65-5.95
				c-4.9-3.84-10.41-6.83-16.13-9.27C66.22,151.6,55.24,145.64,55.16,152.11z"/>
			<path class="st5" d="M56.29,213.87c1.79,2.34,3.87,4.44,5.77,6.7c1.77,2.1,3.39,4.36,5.49,6.13c2.1,1.77,4.8,3.05,7.53,2.74
				c0.24-0.03,0.49-0.07,0.67-0.23c0.23-0.21,0.29-0.55,0.32-0.86c0.26-2.53,0.17-5.1-0.26-7.61c-0.23-1.33-0.53-2.77,0.07-3.97
				c0.83-1.66,2.97-2.1,4.82-2.2c1.85-0.1,3.92-0.14,5.23-1.46c1.17-1.18,1.32-3.14,0.64-4.66c-0.68-1.52-2.04-2.65-3.52-3.41
				c-3.3-1.7-7.15-1.79-10.8-2.46c-6.5-1.2-12.56-4.39-17.44-8.82c-1.16-1.06-2.17-2.7-3.77-1.65c-0.95,0.62-1.71,2.78-1.87,3.87
				c-0.36,2.45,1.03,5.49,1.77,7.76C52.16,207.37,53.96,210.82,56.29,213.87z"/>
			<path class="st5" d="M65.69,218.07c0.99-0.81,0.91-2.32,0.73-3.58c-0.18-1.27-0.28-2.77,0.69-3.6c0.72-0.62,1.78-0.61,2.73-0.56
				c1.06,0.06,2.37-0.02,2.8-0.99c0.43-0.94-0.37-2-1.24-2.56c-1.84-1.2-4.18-1.42-6.36-1.14c-1.61,0.2-3.35,0.63-4.77-0.16
				c-0.65-0.36-1.14-0.94-1.73-1.39c-1.43-1.12-3.14-0.61-2.95,1.24c0.11,1.09,1.94,3.47,2.54,4.46
				C60.12,212.98,62.69,215.81,65.69,218.07z"/>
			<path class="st5" d="M-3.43,179.93c1.01-1.53,3-2.03,4.82-2.24c6.23-0.71,12.59,0.61,18.33,3.13s10.9,6.21,15.63,10.33
				c0.82,0.71,1.65,1.46,2.67,1.85c1.02,0.39,2.27,0.35,3.07-0.39c0.49-0.46,0.74-1.13,0.87-1.79c0.72-3.91-2.51-7.37-5.7-9.73
				c-8.56-6.31-18.97-10.08-29.58-10.7c-1.39-0.08-2.81-0.11-4.14,0.3c-2.41,0.74-4.45,2.87-6.97,2.71
				c-0.25-0.02-0.49,0.29-0.35,0.49c0.14,0.21,0.55-0.06,0.38-0.25"/>
			<path class="st5" d="M89.4,226.74c-0.77,3.95,0.19,8.06,1.76,11.77c2.62,6.19,6.98,11.62,12.45,15.53
				c2.71,1.94,5.68,3.5,8.32,5.53c2.64,2.03,5,4.65,5.88,7.86c0.47,1.72,0.49,3.53,0.76,5.3c0.36,2.32,1.18,4.6,2.69,6.39
				s3.76,3.03,6.1,3c4.08-0.06,7.18-3.74,8.86-7.46c1.67-3.72,2.58-7.88,5.15-11.05c4.52-5.55,12.88-6.51,17.81-11.69
				c3.25-3.41,4.6-8.34,4.27-13.03c-0.34-4.69-2.23-9.17-4.74-13.15c-1.03-1.63-2.18-3.2-3.65-4.44c-2.72-2.27-6.32-3.21-9.84-3.54
				c-6.04-0.57-12.1,0.45-18.16,0.69c-8.19,0.33-16.76-0.04-24.94-0.53c-3.03-0.18-4.95-0.78-7.71,1.13
				C91.83,220.81,89.99,223.68,89.4,226.74z"/>
			<path class="st5" d="M121.56,262.7c1.11,2.62,1.44,5.5,2.31,8.22c0.64,2,1.92,4.18,4,4.37c0.36,0.03,0.74,0,1.05-0.18
				c0.51-0.29,0.75-0.88,0.9-1.45c0.8-3.02-0.08-6.32,0.83-9.3c0.62-2.01,1.99-3.7,2.77-5.65s0.77-4.54-0.93-5.78
				c-1.72-1.25-4.16-0.46-5.96,0.68c-1.8,1.14-3.56,2.62-5.69,2.71c-1.74,0.07-3.41-0.84-5.15-0.7c-0.98,0.08-1.51,0.98-0.82,1.72
				c0.29,0.31,1.98,0.29,2.47,0.51C119.32,258.7,120.75,260.8,121.56,262.7z"/>
			<path class="st5" d="M104.76,232.27c0.06,1.23,0.67,2.37,1.46,3.31c3.16,3.74,8.67,4.33,13.56,4.06
				c4.89-0.27,10.01-1.08,14.53,0.81c2.24,0.94,4.2,2.5,6.51,3.25c2.31,0.76,5.3,0.4,6.51-1.7c1.07-1.85,0.3-4.25-0.95-5.98
				c-2.03-2.81-5.33-4.68-8.8-4.96c-4.34-0.36-8.5,1.62-12.79,2.37c-2.22,0.39-4.51,0.45-6.75,0.18c-2.25-0.27-4.44-0.88-6.57-1.65
				C109.33,231.16,104.55,227.65,104.76,232.27z"/>
			<path class="st5" d="M104.85,273c-0.14-0.85-0.3-1.73-0.15-2.58c0.15-0.85,0.68-1.7,1.5-1.97c1.08-0.35,2.25,0.41,2.8,1.4
				c0.54,0.99,0.63,2.16,0.78,3.28c0.36,2.63,1.15,5.2,2.35,7.57c0.72,1.43,1.72,2.89,3.26,3.32c1.11,0.31,2.45,0.07,3.29,0.86
				c0.65,0.61,0.73,1.61,0.64,2.5c-0.3,3.16-2.06,6.01-4.08,8.46c-2.02,2.45-4.36,4.65-6.17,7.26c-0.97,1.41-1.79,2.93-2.93,4.22
				c-1.45,1.63-5.68,4.11-6.73,0.77c-0.74-2.36,1.89-3.54,2.81-5.32c2.89-5.57,3.63-12.61,3.6-18.78
				C105.81,280.32,105.45,276.64,104.85,273z"/>
			<path class="st5" d="M113.81,294.29c0.61-0.74,0.95-1.65,1.21-2.56c0.13-0.47,0.25-0.97,0.19-1.45
				c-0.06-0.49-0.33-0.98-0.79-1.17c-0.62-0.27-1.36,0.08-2.01-0.09c-0.66-0.17-1.08-0.82-1.29-1.47c-0.21-0.65-0.27-1.34-0.55-1.96
				c-0.06-0.14-0.14-0.28-0.27-0.35c-0.27-0.16-0.62,0.03-0.85,0.25c-1.07,1.07-0.97,2.8-0.9,4.31c0.06,1.33,0.05,2.68-0.24,3.99
				c-0.21,0.93-1.11,2.23-0.26,3.07C109.31,298.08,112.97,295.31,113.81,294.29z"/>
			<path class="st5" d="M61.73,260.26c-2.55-3.33-5.44-6.42-7.43-10.11c-0.6-1.1-1.12-2.37-0.79-3.58c0.49-1.77,2.68-2.59,4.47-2.21
				c1.79,0.38,3.26,1.62,4.65,2.83c4.54,3.93,9.07,7.86,13.61,11.79c2.99,2.59,6.01,5.2,8.45,8.32c2.19,2.79,3.88,5.93,5.43,9.11
				c1.45,2.98,2.79,6.1,3.03,9.4c0.3,4.12-1.18,8.22-3.52,11.62c-2.34,3.4-5.48,6.16-8.79,8.63c-1.82,1.36-3.84,2.7-6.11,2.79
				c-6.33,0.25-3.11-5.3-2.46-8.64c0.91-4.68,0.97-9.51,0.34-14.23C71.36,276.66,67.44,267.72,61.73,260.26z"/>
			<path class="st5" d="M65.18,258.71c-0.95-1.16-1.97-2.84-1.02-4c1.17-1.43,3.42-0.01,4.61,1.4c6.3,7.5,11.85,15.63,16.53,24.23
				c1.57,2.89,3.08,5.95,3.22,9.23c0.16,3.75-2.41,9-6.9,8.56c-4.81-0.47-3.6-7.31-4.06-10.72
				C76.16,276.96,71.87,266.88,65.18,258.71z"/>
			<path class="st5" d="M39.89,276.3c-0.35-1.42-0.83-2.84-0.72-4.3c0.11-1.46,1.02-2.98,2.45-3.25c1.15-0.21,2.29,0.43,3.21,1.16
				c3.74,2.96,5.79,7.53,7.38,12.03c1.34,3.79,2.47,7.8,1.9,11.78c-0.57,3.98-3.26,7.89-7.18,8.75c-2.83,0.62-6.44-0.13-8.09,2.25
				c-0.38,0.55-0.59,1.2-1,1.74c-2.09,2.78-5.98,0.25-6.67-2.33c-0.87-3.27,1.73-4.37,3.64-6.45
				C39.88,292.16,41.66,283.46,39.89,276.3z"/>
			<path class="st5" d="M42.51,279.76c-0.24-1.28-0.42-2.91,0.69-3.59c1.08-0.66,2.47,0.21,3.22,1.22c1.41,1.9,1.86,4.31,2.23,6.65
				c0.47,2.93,0.84,6.06-0.41,8.74c-1.15,2.47-7.18,9.23-6.78,2.95C41.81,290.17,43.59,285.52,42.51,279.76z"/>
			<path class="st6" d="M108.74-10.52C93.3-6.77,83.13,9.87,83.88,25.73C84.64,41.6,94.58,56,107.46,65.3
				c10.32,7.45,22.82,12.39,30.63,22.43c5.38,6.91,7.95,15.54,12.06,23.26c7.61,14.29,20.86,25.47,36.21,30.6
				c15.36,5.12,32.66,4.12,47.33-2.73c6.66-3.11,13.01-7.64,16.37-14.18c7.15-13.88-1.27-30.89,1.59-46.24
				c0.15-0.82,0.35-1.66,0.86-2.31c0.93-1.19,2.59-1.45,4.06-1.8c6.82-1.63,12.12-6.99,16.28-12.64
				c14.29-19.39,19.5-45.2,13.83-68.61c0.02,0.59,0.04,1.17,0.06,1.76"/>
			<g>
				<g>
					<path class="st8" d="M91.53-9.41c-0.21,0.26-0.42,0.52-0.63,0.77"/>
					<path class="st12" d="M88.38-5.53C83.25,0.88,78.4,7.54,75.11,15.03c-3.96,9.02-5.5,19.49-2.14,28.75
						c4.33,11.95,15.64,19.63,25.46,27.71c10.32,8.5,19.61,18.25,27.6,28.98c8.88,11.94,16.28,25.21,27.39,35.11
						c16.75,14.93,40.39,20.41,62.78,18.81c4.55-0.32,9.14-0.93,13.39-2.6c4.79-1.88,8.95-5.03,13.02-8.16
						c8.65-6.66,17.77-14.31,20.08-24.99c2.16-10-1.95-21.62,3.9-30.02c2.15-3.09,5.37-5.22,8.18-7.72
						c14.45-12.82,17.31-33.94,19.25-53.15c1.22-12.1,2.43-24.2,3.65-36.3"/>
					<path class="st8" d="M297.85-10.53c0.03-0.33,0.07-0.66,0.1-0.99"/>
				</g>
			</g>
			<path class="st5" d="M210.45,192.73c7.01,0.63,14.29,0.08,20.68-2.88c6.39-2.96,11.77-8.61,13.21-15.5
				c0.54-2.58,0.46-5.47-1.08-7.61c-1.88-2.6-5.51-3.42-8.68-2.92c-3.17,0.5-6.06,2.07-8.97,3.43c-10.54,4.92-22.71,7.3-33.92,4.2
				c-5.56-1.53-10.86-4.38-16.62-4.5c-4.26-0.09-7.97,2.66-5.59,6.88c1.91,3.39,8.4,6.87,11.64,8.91
				C189.91,188.31,200.05,191.8,210.45,192.73z"/>
			<path class="st5" d="M208.28,187.62c5.99,1.28,12.36,1.09,18.12-1.01c3.26-1.19,6.72-3.67,6.61-7.14
				c-0.09-2.73-2.55-4.93-5.2-5.58c-2.65-0.65-5.44-0.08-8.08,0.66c-4.92,1.37-9.81,3.3-14.92,3.21c-3.38-0.06-6.61-1.05-9.93-1.54
				c-2.2-0.32-6.4,0.3-4.14,3.31c1.57,2.09,5.62,3.64,7.91,4.75C201.72,185.75,204.95,186.91,208.28,187.62z"/>
			<path class="st5" d="M221.94,228.56c-1.59,0.71-2.83,2.02-3.8,3.47c-4.16,6.24-3.04,15.44,2.49,20.5
				c5.4,4.94,14.59,6.78,16.24,13.91c0.86,3.74-0.83,7.91,0.76,11.4c1.18,2.59,3.89,4.12,6.55,5.12c8.56,3.23,18.2,2.78,26.96,0.12
				c8.75-2.66,16.73-7.41,24.22-12.67c4.91-3.44,9.71-7.18,13.39-11.91c4.15-5.32,6.72-11.69,8.85-18.09
				c4.56-13.71,7.33-27.98,12.43-41.5c5.1-13.51,12.93-26.61,25.07-34.44c5.87-3.79,12.56-6.21,18.29-10.21
				c11.31-7.87,18.05-23.13,13.24-36.04c-2.96-7.94-9.82-14.05-17.65-17.28c-7.83-3.23-16.56-3.78-24.98-2.88
				c-12.51,1.33-25.08,6.1-33.56,15.39c-8.61,9.44-12.12,22.3-15.81,34.53c-5.62,18.58-12.3,36.84-20.02,54.65
				c-2.63,6.08-5.46,12.22-9.93,17.11c-5.38,5.89-12.58,9.1-20.37,10.2c-3,0.43-6.23,0.82-9.23,0.42
				C230.7,229.78,226.44,226.54,221.94,228.56z"/>
			<path class="st5" d="M233.44,248.56c3.62,1.74,7.89,3.07,9.82,6.59c2.35,4.29,0.09,9.86,1.95,14.39
				c0.94,2.28,2.84,4.05,4.94,5.34c7.05,4.34,16.28,3.79,23.88,0.51c7.6-3.28,13.88-8.95,19.85-14.69
				c6.44-6.19,12.82-12.76,16.45-20.92c1.75-3.95,2.81-8.17,3.8-12.38c3.05-13.02,5.51-26.24,10.2-38.76
				c4.69-12.52,11.86-24.5,22.58-32.49c6.62-4.94,14.52-8.31,20.03-14.47c5.51-6.16,7.53-16.77,1.31-22.21
				c-2.28-1.99-5.26-2.94-8.14-3.84c-6.64-2.07-13.37-4.16-20.32-4.56c-6.95-0.39-14.26,1.08-19.66,5.46
				c-4.07,3.3-6.76,7.97-9.36,12.52c-7.42,13.01-14.91,26.16-19.2,40.5c-1.59,5.33-2.74,10.79-4.33,16.12
				c-5.27,17.59-16.22,37.52-30.71,49.27c-5.32,4.31-10.55,4.67-17.16,3.77c-3.34-0.45-9.83-3.33-11.99,0.02
				C224.83,242.68,230.57,247.17,233.44,248.56z"/>
			<path class="st6" d="M323.84,131.13c1.07-1.85,2.25-3.69,3.85-5.1c2.09-1.84,4.79-2.85,7.5-3.47c3.6-0.83,7.64-0.98,10.74,1.03
				c3.71,2.4,5.08,7.43,4.15,11.74c-0.93,4.32-3.76,7.99-6.97,11.03c-3.21,3.03-6.85,5.58-10.04,8.64
				c-4.35,4.17-7.76,9.21-11.85,13.64c-2.68,2.9-5.97,5.68-9.92,5.97c-3.94,0.28-8.26-3.18-7.4-7.04c0.35-1.59,1.46-2.89,2.53-4.12
				c4.05-4.66,7.78-8.38,9.78-14.17C318.33,143.11,320.16,136.64,323.84,131.13z"/>
			<path class="st6" d="M254.48,244.27c-1.62,1.48-2.71,3.77-2.1,5.87c2.73,0.99,5.86,2.43,6.4,5.28c0.48,2.51-1.35,4.96-1.14,7.51
				c0.3,3.53,4.59,5.57,8.05,4.81c3.46-0.76,6.15-3.41,8.53-6.02c13.95-15.25,24.7-33.42,31.35-53c0.91-2.67,1.72-5.7,0.46-8.23
				c-1.84-3.69-7.32-4.12-10.81-1.93c-9.07,5.7-10.72,20-16.65,28.37C272.45,235.58,261.83,237.57,254.48,244.27z"/>
			<path class="st5" d="M263.36,248.83c0.08,0.65,0.34,1.35,0.93,1.65c0.42,0.21,0.91,0.17,1.36,0.3c0.87,0.26,1.44,1.14,1.59,2.04
				c0.15,0.9-0.05,1.81-0.25,2.69c-0.13,0.56-0.26,1.17-0.03,1.7c0.34,0.79,1.37,1.1,2.2,0.88c0.83-0.22,1.5-0.82,2.11-1.43
				c3.77-3.76,6.54-8.38,9.27-12.96c1.64-2.74,3.28-5.49,4.92-8.23c0.13-0.22,0.26-0.47,0.17-0.71c-0.1-0.25-0.41-0.34-0.68-0.38
				c-3.09-0.4-5.93,1.65-8.19,3.8c-2.6,2.47-4.32,4.38-7.91,4.59C265.63,242.96,262.92,245.38,263.36,248.83z"/>
			<path class="st6" d="M313.07,167.7c-0.42-0.07-0.88-0.2-1.13-0.55c-0.34-0.48-0.16-1.14,0.08-1.67c1.53-3.31,4.97-5.24,7.47-7.89
				c3.14-3.32,4.79-7.74,6.63-11.93c1.85-4.18,4.15-8.45,8.04-10.85c0.96-0.59,2.3-1.01,3.12-0.25c0.49,0.46,0.6,1.18,0.62,1.85
				c0.07,2.88-1.11,5.67-2.73,8.05c-1.63,2.38-3.7,4.41-5.67,6.51c-3.04,3.24-5.87,6.67-8.48,10.27
				C318.79,164.32,317.72,168.42,313.07,167.7z"/>
			<g>
				<g>
					<path class="st8" d="M479.57-29.29c-0.27,0.19-0.54,0.39-0.8,0.59"/>
					<path class="st13" d="M475.87-25.99c-1.76,1.93-3.26,4.13-4.7,6.33c-12.22,18.7-21.29,39.45-26.72,61.12
						c-2.01,8-3.46,16.73-0.14,24.28c2.11,4.8,5.97,8.61,10,11.97c4.41,3.67,9.37,7.05,15.05,7.93c7.11,1.1,14.29-1.92,20.09-6.17
						c5.8-4.25,10.59-9.71,15.98-14.47c26.2-23.15,63.37-27.72,95.93-40.47c10.31-4.04,20.71-9.34,27.01-18.44
						c6.73-9.73,7.67-22.1,7.93-34.02"/>
					<path class="st8" d="M636.34-29.93c0.01-0.33,0.01-0.67,0.02-1"/>
				</g>
			</g>
			<path class="st5" d="M502.33-36.26c-18.73,21.91-37.8,44.35-48.4,71.15c-4.18,10.57-6.21,24.42,2.48,31.74
				c8.61,7.25,22.28,2.83,30.34-5.03c8.06-7.86,13.03-18.45,21.13-26.27c13.32-12.85,32.83-16.3,51.09-19.31
				c18.26-3.01,37.79-6.84,50.67-20.14c8.81-9.1,13.41-22.13,12.24-34.74"/>
			<path class="st6" d="M594.03-23.99c3.24,9.69-1.81,20.69-9.84,27c-8.03,6.31-18.41,8.75-28.55,9.98
				c-10.14,1.23-20.46,1.43-30.34,4.02c-12.9,3.38-24.68,10.89-33.19,21.16c-2.28,2.75-4.39,5.75-7.37,7.71
				c-2.98,1.96-7.18,2.63-10.04,0.49c-4.64-3.48-2.52-10.92,0.84-15.65c7.26-10.22,18.01-17.33,27.12-25.94
				c9.11-8.61,17.08-20.16,15.91-32.64"/>
			<path class="st6" d="M563.8-12.88c-1.98-0.45-3.75,1.32-4.78,3.07c-2.1,3.57-2.98,7.71-4.48,11.57c-1.5,3.86-3.91,7.71-7.75,9.26
				c-4.11,1.66-8.75,0.3-13.19,0.29c-10.41-0.03-19.97,7.46-30.33,6.48c-0.59-0.06-1.25-0.17-1.62-0.63
				c-0.69-0.84,0.01-2.08,0.72-2.9c3.33-3.83,7.33-7.06,11.77-9.51c2.64-1.45,5.48-2.67,7.6-4.81c2.14-2.17,3.33-5.08,4.47-7.91
				c1.35-3.36,2.7-6.72,4.05-10.08"/>
			<path class="st5" d="M447.58-14.05c-11.45,8.14-19.33,20.64-23.66,34c-4.33,13.36-5.31,27.6-4.91,41.65
				c0.18,6.38,0.67,12.88,3.06,18.8c5.2,12.87,18.2,20.61,30.65,26.73c7.14,3.51,14.54,6.85,22.44,7.84
				c18.53,2.34,36.15-8.47,50.21-20.76c14.06-12.29,26.81-26.79,43.81-34.53c17.52-7.98,37.86-7.94,55.4-15.89
				c25.81-11.7,41.55-39.46,45.69-67.5"/>
			<path class="st5" d="M360.37,82.71c-4.81-0.35-10.97-1.02-12.24-5.68c-0.91-3.33,1.66-6.75,4.74-8.29
				c3.09-1.54,6.64-1.79,9.99-2.59c5.41-1.3,10.43-4.15,14.36-8.09c8.86-8.89,12.87-23.53,24.77-27.54
				c1.95-0.66,4.47-0.81,5.72,0.83c1.55,2.03-0.08,4.87-1.55,6.96c-6.26,8.89-10.18,20.26-7.13,30.69
				c3.24,11.05,13.7,19.3,15.32,30.7c0.73,5.11-1.1,13.75-7.61,11.95c-3.82-1.06-9.46-11.48-12.72-14.39
				C384.76,88.97,372.8,83.62,360.37,82.71z"/>
			<path class="st5" d="M575.72,74.49c11.66-2.75,24.86-0.33,34.99-6.73c5.49-3.47,10.75-9.58,17.03-7.96
				c1.5,0.39,2.94,1.31,3.56,2.73c0.48,1.11,0.41,2.38,0.28,3.58c-0.74,6.55-3.14,12.79-4.26,19.29c-1.69,9.8-0.43,20.04-3.12,29.61
				c-2.69,9.57-11.58,18.76-21.3,16.67c-3.99-0.86-7.34-3.45-10.85-5.52c-10.36-6.12-22.36-7.52-34.02-5.14
				c-8.1,1.65-15.09,3.47-17.62-6.5C535.76,96.18,560.58,78.06,575.72,74.49z"/>
			<path class="st5" d="M381.22,66.14c-2.66,1.59-6.53,1.48-8.12,4.14c-1.37,2.29,0.42,5.75,3.09,5.94c2.61,0.19,4.93-2.2,7.53-1.89
				c3.5,0.42,5.17,5.37,8.68,5.6c0.58,0.04,1.19-0.08,1.65-0.42c1.01-0.76,1-2.25,0.85-3.5c-0.45-3.72-1.29-7.4-2.49-10.96
				c-0.34-1-0.72-2.02-1.41-2.83c-1.23-1.45-4.81-2.92-6.44-1.65C383.13,61.7,383.48,64.79,381.22,66.14z"/>
			<path class="st5" d="M414.71,122.24c-4.48,1.04-8.49,3.94-10.87,7.87c-0.92,1.52-1.62,3.27-1.45,5.04
				c0.35,3.6,4.14,5.93,7.71,6.43c3.58,0.5,7.23-0.23,10.83,0.13c11.24,1.14,18.77,12.24,29.3,16.31c3.98,1.54,8.35,2.02,12.57,1.4
				c1.39-0.21,2.81-0.56,3.89-1.45c1.31-1.08,1.91-2.78,2.63-4.32c2.5-5.31,7.24-9.52,12.81-11.38c3.95-1.32,8.17-1.48,12.28-2.18
				c4.1-0.7,8.33-2.08,11.07-5.22c2.74-3.14,3.33-8.42,0.33-11.31c-2.13-2.05-5.37-2.39-8.32-2.33
				c-10.27,0.22-20.14,3.88-30.32,5.21c-10.18,1.33-21.83-0.31-28.25-8.32c-2.46-3.07-8.58-17.15-14.26-12.99
				c-2.76,2.02-1.09,7.23-1.29,9.95C422.99,120.58,419.35,121.17,414.71,122.24z"/>
			<path class="st5" d="M416.3,136.8c7.38,1.57,15.78-2.51,22.28,1.31c2.39,1.41,4.1,3.69,6.04,5.67c3.65,3.71,9.18,6.52,13.97,4.48
				c3.58-1.53,5.7-5.33,9.11-7.2c1.93-1.06,4.14-1.42,6.25-2.05c2.11-0.63,4.25-1.63,5.42-3.49c1.17-1.86,0.86-4.76-1.09-5.76
				c-1.99-1.02-4.3,0.29-6.27,1.35c-8.44,4.53-19.1,4.62-27.61,0.24c-4.63-2.38-9.13-6.11-14.32-5.59
				c-3.17,0.32-5.72,2.21-8.63,3.28c-2.63,0.96-4.52,0.13-6.95,0.51C408.81,130.44,411.87,135.86,416.3,136.8z"/>
			<path class="st5" d="M616.17,322.27c0.2-10.13,0.99-20.38-1.09-30.3c-2.08-9.91-7.61-19.71-16.76-24.06
				c-5.05-2.4-11.75-2.69-15.66,1.32c-3.01,3.09-3.54,7.77-3.9,12.07c-0.89,10.58-1.78,21.16-2.67,31.74
				c-0.58,6.89-1.18,13.87-3.57,20.35c-6.09,16.52-23.51,27.18-41.06,28.5c-6.71,0.51-13.74-0.1-19.86,2.69
				c-5.13,2.34-9.11,7.06-10.56,12.5c-1.45,5.45-0.33,11.52,2.96,16.09c4.52,6.29,12.59,9.3,20.33,9.36
				c7.75,0.06,15.27-2.46,22.45-5.37c5.72-2.33,11.37-4.94,17.42-6.21c6.04-1.27,12.64-1.08,18,1.99
				c7.24,4.16,10.76,12.52,16.17,18.89c4.1,4.83,9.43,8.6,15.35,10.85c4.08,1.55,8.79,2.34,12.71,0.44
				c5.51-2.68,5.21-8.41,3.52-13.24c-2.42-6.89-4.46-13.91-6.23-20.99c-3.49-13.97-5.79-28.24-6.87-42.6
				C616.24,338.31,616.01,330.29,616.17,322.27z"/>
			<path class="st5" d="M604.8,286.33c-1.94-4.42-5.32-9.2-10.15-9.09c-2.62,0.06-5.03,1.65-6.57,3.77
				c-1.54,2.11-2.32,4.69-2.8,7.26c-1.78,9.52,0.18,19.54-2.34,28.88c-0.66,2.45-1.63,4.93-1.27,7.44c0.36,2.51,2.74,4.96,5.18,4.26
				c3.2-0.92,3.52-5.99,6.65-7.11c5.69-2.04,6.13,7.11,10.41,7.45c4.7,0.37,5.51-7.87,5.82-10.86
				C610.84,307.48,609.17,296.33,604.8,286.33z"/>
			<path class="st5" d="M591.62,291.33c0.27-1.41,0.62-2.85,1.49-3.99c0.87-1.14,2.4-1.9,3.76-1.45c1.76,0.57,2.41,2.71,2.6,4.56
				c0.31,3.04,0.09,6.2,1.16,9.07c0.7,1.89,1.92,3.54,2.66,5.41c0.92,2.32,1.06,4.93,0.4,7.34c-0.35,1.29-1.26,2.72-2.59,2.61
				c-2.2-0.18-2.13-3.96-4.17-4.8c-3.28-1.33-3.75,4-6.13,3.97c-2.29-0.02-2.29-4.04-2.05-5.73c0.29-2.07,1.41-4,1.73-6.11
				C591.01,298.6,590.91,294.95,591.62,291.33z"/>
			<path class="st5" d="M587.72,337.07c2.46-0.37,4.76-1.39,7.12-2.19c0.84-0.29,1.87-0.51,2.55,0.06c0.57,0.48,0.65,1.31,0.87,2.03
				c0.82,2.71,3.85,3.96,5.86,5.96c3.36,3.33,3.69,8.53,4.18,13.23c1.43,13.76,5.81,27,9.23,40.4c0.4,1.56,0.79,3.19,0.43,4.77
				c-0.35,1.57-1.68,3.05-3.29,3c-1.4-0.04-2.51-1.15-3.48-2.16c-6.96-7.25-15.26-13.5-24.84-16.53c-20.3-6.42-42.12,2.38-63.4,1.67
				c-1.59-0.05-3.27-0.19-4.56-1.12c-1.49-1.07-2.14-3.02-2.11-4.86c0.13-6.06,6.4-10.04,12.19-11.82
				c13.64-4.19,29.25-2.88,41.11-10.81c1.6-1.07,3.13-2.33,4.15-3.96c1.34-2.14,1.71-4.73,2.04-7.23c0.28-2.06,0.55-4.11,0.83-6.17
				C577.65,333.52,582.64,337.84,587.72,337.07z"/>
			<path class="st5" d="M602.46,355.65c-0.74-2.88-2.33-6.24-5.3-6.37c-1.78-0.08-3.54,1.13-5.26,0.64
				c-1.64-0.47-2.46-2.24-3.31-3.72c-0.85-1.48-2.4-3-4.02-2.47c-1.62,0.53-1.97,2.62-2.04,4.32c-0.22,5.09-0.44,10.18-0.65,15.27
				c-0.05,1.25-0.09,2.56,0.46,3.69c1.29,2.6,4.83,2.8,7.46,4.02c4.13,1.92,6.1,6.53,8.47,10.42c1.68,2.76,4.81,7.96,7.92,9.28
				c5.16,2.19,1.98-4.55,1.27-7.45C605.22,374.18,604.79,364.73,602.46,355.65z"/>
			<path class="st5" d="M529.77,375.53c-1.39,0.62-2.87,1.49-3.31,2.95c-0.7,2.31,1.62,4.49,3.93,5.17c3.62,1.06,7.55,0.09,11-1.44
				c3.45-1.54,6.64-3.64,10.15-5.01c4.09-1.6,8.57-2.17,12.93-1.66c1.97,0.23,4.03,0.68,5.9-0.01c5.45-2,0.83-5.62-2.68-5.89
				c-3.96-0.31-8.42,1.15-12.42,1.51C546.69,371.9,537.78,371.94,529.77,375.53z"/>
			<path class="st5" d="M459.25,411.97c2.78,3.32,6.68,5.68,10.91,6.61c3.8,0.83,7.75,0.52,11.64,0.78
				c3.88,0.27,7.98,1.26,10.65,4.09c3.26,3.47,3.57,8.68,3.91,13.42c0.34,4.75,1.21,10.05,5.06,12.86
				c3.11,2.28,7.41,2.23,11.09,1.08c3.68-1.15,6.97-3.25,10.46-4.9c10.08-4.77,21.58-5.63,32.71-5.1
				c11.14,0.53,22.19,2.37,33.33,2.68c2.83,0.08,5.92-0.03,8.1-1.84c3.31-2.76,2.89-7.96,1.48-12.04
				c-4.58-13.31-17.92-23.96-31.94-22.71c-4.7,0.42-9.18,2.06-13.72,3.33c-9.52,2.65-19.49,3.67-29.34,3
				c-6.16-0.42-12.46-1.57-17.65-4.92c-7.62-4.92-11.67-13.72-15.03-22.15c-0.76-1.9-1.53-3.84-2.88-5.37
				c-1.36-1.53-3.45-2.57-5.44-2.12c-2.09,0.48-3.52,2.41-5.46,3.32c-2.99,1.39-6.57,0.09-9.26-1.82c-2.69-1.92-4.95-4.45-7.9-5.93
				c-2.94-1.49-7.02-1.58-9.09,0.98c-1.1,1.37-3.37,6.37-3.52,8.05c-0.21,2.44,2.85,6.62,3.79,9.29
				C453.46,399.16,454.63,406.46,459.25,411.97z"/>
			<path class="st5" d="M458.65,401.99c1.25,3.44,2.79,6.99,5.73,9.16c6.43,4.76,15.86,0.73,23.38,3.49
				c2.67,0.98,5.12,2.83,7.97,2.9c0.91,0.02,1.87-0.16,2.56-0.75c0.57-0.48,0.91-1.19,1.09-1.92c0.72-2.96-0.97-5.91-2.6-8.48
				c-3.93-6.23-7.87-12.46-11.8-18.69c-0.25-0.4-0.5-0.8-0.85-1.11c-1.12-1.04-2.93-0.94-4.33-0.31c-1.4,0.62-2.57,1.66-3.91,2.4
				c-2.98,1.64-6.8,1.63-9.77-0.03c-1.8-1-3.24-2.52-4.92-3.71C449.32,376.49,457.24,398.13,458.65,401.99z"/>
			<path class="st5" d="M469.59,403.84c4.53,0.89,9.79-1.06,13.51,1.66c1.53,1.13,2.85,3.04,4.75,2.87c0.21-0.02,0.43-0.07,0.6-0.21
				c0.23-0.19,0.32-0.5,0.38-0.79c0.5-2.5-0.21-5.21-1.88-7.14c-1.67-1.93-4.25-3.02-6.79-2.89c-1.18,0.06-2.33,0.37-3.51,0.4
				c-3.75,0.08-11.65-7.04-14.72-4.6C457.68,396.51,466.7,403.27,469.59,403.84z"/>
			<path class="st5" d="M503.31,440.12c1.29,2.43,4.44,4.11,6.88,2.83c2.23-1.17,2.81-4.02,4.03-6.22c1.93-3.47,6.03-5.6,9.98-5.16
				c1.74,0.19,3.47,0.83,5.21,0.59c2.08-0.29,3.89-1.98,4.33-4.04c0.44-2.06-0.52-4.34-2.3-5.46c-4.15-2.61-9.87,1.43-14.39-0.47
				c-1.49-0.63-2.66-1.84-4.1-2.58C501.18,413.61,500.13,434.15,503.31,440.12z"/>
			<path class="st5" d="M578.26,416.58c6.58,2.44,13.21,7.33,13.88,14.32c0.4,4.22-2.45,9.08-6.69,9.11
				c-2.79,0.02-5.14-1.93-7.46-3.47c-6.33-4.19-14.31-5.8-21.76-4.38c-2.42,0.46-4.81,1.22-7.27,1.25
				c-4.14,0.05-10.61-3.76-8.57-8.86c1.3-3.25,5.97-2.97,8.86-3.43c5.35-0.87,8.68-4.25,13.66-5.78
				C567.91,413.78,573.46,414.8,578.26,416.58z"/>
			<path class="st5" d="M506.65,438.68c0.95,0.13,1.81-0.64,2.2-1.51c0.39-0.87,0.45-1.85,0.66-2.78c0.81-3.5,4.19-6.22,7.78-6.28
				c1.33-0.02,3.13-0.03,3.4-1.33c0.17-0.82-0.54-1.61-1.34-1.83c-2.43-0.69-10.97,1.15-12.95,3.13
				C504.76,429.73,503.32,438.24,506.65,438.68z"/>
			<path class="st5" d="M550.25,425.52c-0.66,0.62-0.98,1.71-0.46,2.45c4.33,0.68,8.58-1.54,12.96-1.81
				c6-0.37,11.52,2.89,16.94,5.48c1.82,0.87,4.41,1.48,5.5-0.21c0.76-1.17,0.21-2.77-0.69-3.84c-1.36-1.61-3.38-2.5-5.37-3.19
				c-5.28-1.84-11.08-2.77-16.68-2.4C559.13,422.23,552.68,423.23,550.25,425.52z"/>
			<path class="st5" d="M470.43,373.41c0.72,0.54,1.55,1.07,2.44,0.95c0.6-0.08,1.12-0.45,1.61-0.82c2.37-1.77,5.19-3.72,8.04-2.92
				c2.8,0.78,4.26,3.85,6.71,5.41c0.65,0.41,1.63,0.66,2.08,0.04c0.17-0.23,0.21-0.54,0.25-0.82c0.37-2.99,0.73-5.98,1.1-8.96
				c0.07-0.56,0.13-1.16-0.12-1.67c-0.22-0.44-0.64-0.74-1.07-0.98c-4.83-2.67-10.92,0.35-16.31-0.8c-1.59-0.34-3.08-1.04-4.63-1.54
				c-3.11-1.01-9.46-2.54-8.63,2.29C462.5,367.11,467.76,371.41,470.43,373.41z"/>
			<path class="st5" d="M433.81,387.61c0.92,0.47,1.78,1.19,2.81,1.24c1.57,0.07,2.76-1.51,3.08-3.05c0.32-1.54,0.08-3.15,0.35-4.7
				c0.82-4.67,6.04-7.89,6.09-12.62c0-0.37-0.04-0.77-0.3-1.03c-0.2-0.2-0.49-0.28-0.77-0.34c-1.91-0.45-4.04-0.75-5.75,0.21
				c-1.79,1.01-2.62,3.12-3.11,5.11c-0.49,1.99-0.81,4.12-2.03,5.77c-1.23,1.67-3.2,2.59-4.96,3.69c-1.76,1.1-3.49,2.65-3.72,4.71
				C425.11,390.19,431.13,386.25,433.81,387.61z"/>
			<path class="st5" d="M555.1,94.47c-1.54,2.35-2.77,5-2.82,7.81c-0.06,2.8,1.26,5.76,3.76,7.04c2.31,1.18,5.14,0.75,7.52-0.28
				c2.38-1.04,4.47-2.63,6.76-3.84c8.82-4.67,20.6-2.86,27.63,4.23c1.97,1.99,4.02,4.53,6.81,4.41c1.97-0.09,3.66-1.6,4.52-3.37
				c0.87-1.77,1.08-3.79,1.27-5.75c0.29-2.92,0.53-6.05-0.93-8.6c-0.94-1.64-2.48-2.83-4.05-3.88c-7.14-4.79-16.01-7.59-24.42-5.8
				c-5.57,1.18-10.57,2.65-16.16,3.35C560.45,90.34,558.21,89.72,555.1,94.47z"/>
			<path class="st5" d="M699.04-9.07c-11.71,4.21-18.06,16.98-20.6,29.17c-2.54,12.19-2.49,25-6.99,36.6
				c-2.8,7.22-7.25,13.67-11.14,20.37c-4.06,6.99-7.53,14.32-10.38,21.89c-3.58,9.52-6.18,19.72-4.88,29.81
				c1.3,10.09,7.16,20.05,16.54,23.99c5.58,2.34,11.83,2.4,17.87,2.22c17.29-0.51,34.89-2.61,51.66,1.6
				c8.77,2.2,17.05,6.08,25.86,8.12c8.81,2.03,18.7,1.98,26.14-3.15"/>
			<path class="st5" d="M772.41,151.29c-15.66,3.59-31.5-3.41-46.93-7.91c-15.36-4.48-31.41-6.56-47.4-6.12
				c-7.68,0.21-16.95,0.23-21.02-6.28c-3.69-5.91-0.67-13.59,2.7-19.68c11.58-20.88,27.44-40.76,29.58-64.54
				c0.64-7.14-0.01-14.39,1.23-21.45c1.25-7.14,4.44-13.92,9.14-19.43c5.65-6.63,13.94-12.55,14.06-21.26"/>
			<path class="st5" d="M728.14-12.02c2.59,11.97-3.28,25.29-13.86,31.46c-4.51,2.63-9.93,4.22-13.06,8.41
				c-2.63,3.52-3.08,8.17-3.43,12.55c-0.75,9.38-1.49,18.77-2.24,28.15c-0.51,6.44-1.09,13.12-4.31,18.72
				c-6.11,10.66-20.8,15.93-23.03,28c-0.76,4.1,0.57,8.95,4.28,10.84c1.48,0.75,3.19,0.96,4.85,0.94
				c13.74-0.15,24.51-14.39,38.25-13.89c6.03,0.22,11.55,3.33,16.66,6.54c5.11,3.22,10.27,6.71,16.19,7.87
				c5.93,1.16,12.93-0.7,15.83-5.99"/>
			<path class="st5" d="M764.86,100.07c-8.18,0.48-16.46-0.91-24.03-4.04c-4.58-1.89-9.16-4.69-11.22-9.19
				c-2.04-4.46-1.21-9.7-2.4-14.46c-1.5-6-6-10.68-9.7-15.63c-3.7-4.95-6.82-11.23-4.97-17.13c1.5-4.77,5.93-8.04,10.51-10.07
				c4.57-2.02,9.53-3.15,13.96-5.48c10.89-5.74,17.14-19.14,14.53-31.17"/>
			<path class="st5" d="M700.67,104.67c-4.25,3.53-8.86,7.65-14.38,7.38c-1.61-3.31-0.23-7.41,2.19-10.19
				c2.42-2.77,5.73-4.58,8.76-6.68c3.03-2.09,5.98-4.71,7.04-8.23c1.19-3.93,0.12-8.96,3.29-11.58c2.9-2.4,7.6-0.74,9.78,2.33
				c2.19,3.07,2.6,7,3.19,10.72s1.59,7.68,4.48,10.09c1.14,0.95,2.54,1.62,3.5,2.76c1.46,1.76,1.51,4.55,0.1,6.35
				c-1.41,1.8-4.13,2.44-6.19,1.44c-3.88-1.87-5.36-8.09-9.09-9.49C709.06,97.98,703.73,102.12,700.67,104.67z"/>
			<path class="st5" d="M762.26,85.13c-4.2,1.01-8.52,1.57-12.84,1.66c-1.48,0.03-3.01,0-4.37-0.58c-2.79-1.2-4.16-4.37-4.71-7.36
				c-0.54-2.99-0.55-6.13-1.8-8.9c-1.48-3.29-4.5-5.59-6.74-8.42c-2.02-2.55-3.41-5.58-4.04-8.77c-0.65-3.3,0.24-7.66,3.52-8.35
				c1.82-0.38,3.75,0.57,5.53,0.02c3.22-1,3.21-5.61,5.33-8.24c2.07-2.57,6.2-2.77,9-1.02s4.38,4.99,4.97,8.24"/>
			<path class="st5" d="M714.65,203.35c-0.93-0.01-1.89-0.04-2.73-0.43c-1.99-0.9-2.68-3.32-3.96-5.1c-1.36-1.89-3.46-3.09-5.23-4.6
				c-1.77-1.51-3.34-3.68-2.98-5.98c0.51-3.3,4.49-4.76,7.83-4.85c3.34-0.1,6.98,0.42,9.76-1.44c2.24-1.51,3.44-4.32,5.85-5.54
				c2.74-1.38,6.15-0.19,8.48,1.79c2.33,1.99,3.96,4.66,6.03,6.93c4.78,5.23,11.64,7.96,17.41,12.07c2.69,1.92,7.73,6.86,4.52,10.51
				c-2.81,3.2-7.25-0.3-10.26-1.39C737.75,201.1,726.68,203.46,714.65,203.35z"/>
			<path class="st7" d="M326.32,441.84c-5.33-7.17-8.53-15.65-12.58-23.61c-15.64-30.72-43.72-53.06-72.28-72.36
				c-5.13-3.46-10.39-6.95-14.2-11.83c-3.8-4.88-5.95-11.51-3.93-17.36c3.72-10.78,17.99-12.76,29.36-11.91
				c12.88,0.96,25.72,3.15,38.62,2.65c12.91-0.5,26.26-4.03,35.64-12.92c5.76-5.47,9.68-12.64,12.36-20.12
				c6.18-17.26,6.07-36.1,10.33-53.93s14.96-36.25,32.72-40.76c23.11-5.86,45.59,14.11,69.41,13.08
				c11.97-0.52,22.99-6.31,33.55-11.96c12.31-6.59,24.61-13.18,36.92-19.77c7.72-4.13,15.7-8.35,24.42-9.18
				c8.72-0.83,18.45,2.57,22.47,10.35c3.51,6.8,1.89,15.26-1.79,21.97c-3.68,6.71-9.17,12.2-13.9,18.22
				c-11.37,14.47-18.4,32.31-19.94,50.65c-1.73,20.54,3.26,41.02,4.24,61.61c0.19,4.06,0.2,8.29-1.56,11.95
				c-1.5,3.14-4.17,5.57-7.03,7.55c-29.2,20.23-73.18-2.67-103.42,15.98c-16.49,10.17-23.94,29.76-32.64,47.08
				c-8.2,16.31-18.39,31.62-30.26,45.49c-4.54,5.3-9.75,12.36-17.4,11.94C337.93,454.23,330.52,447.49,326.32,441.84z"/>
			<path class="st5" d="M486.64,331.38c13.75,1.49,30.11-1.13,36.76-13.26c3.55-6.49,3.47-14.28,3.29-21.67
				c-0.24-9.98-0.48-19.96-0.72-29.94c-0.2-8.32-0.48-16.97-4.28-24.37c-3.8-7.4-12.23-13.14-20.28-11.06
				c-8.33,2.16-12.72,11.24-14.81,19.58c-2.1,8.34-3.27,17.51-9.16,23.79c-10.28,10.96-30.16,8.12-39.82,19.63
				c-2.46,2.93-3.98,6.54-4.98,10.22c-2.97,10.86,0.13,27.24,14.17,26.18c5.9-0.45,10.61-2.63,16.88-2.2
				C471.39,328.81,478.97,330.54,486.64,331.38z"/>
			<path class="st6" d="M359.22,259.78c0.13-13.59-0.78-27.52,3.4-40.45c4.17-12.93,15.05-24.9,28.64-25.34
				c8.88-0.29,17.16,4.28,24.47,9.33c4.48,3.09,8.93,6.56,11.55,11.32c2.62,4.77,2.99,11.16-0.44,15.38
				c-6.05,7.42-18.17,3.72-27.08,7.23c-6.79,2.67-11.12,9.41-13.7,16.24c-2.58,6.82-3.89,14.12-7.04,20.7
				c-3.16,6.58-8.81,12.62-16.06,13.47C345.59,289.69,359.15,267.82,359.22,259.78z"/>
			<path class="st5" d="M251.2,322.92c-1.86,0.13-3.83,0.49-5.15,1.8c-2.25,2.24-1.5,6.09,0.09,8.84
				c4.76,8.22,14.55,11.75,22.41,17.08c9.64,6.54,16.68,16.16,23.53,25.59c11.52,15.87,23.06,31.77,32.93,48.71
				c2.37,4.07,4.72,8.29,8.32,11.32c3.6,3.04,8.82,4.66,13.11,2.72c3.78-1.71,5.96-5.65,7.73-9.39
				c6.03-12.75,10.39-26.23,16.41-38.99c6.02-12.75,13.98-25.03,25.51-33.15c3.26-2.3,6.82-4.27,9.5-7.22
				c4.05-4.45,5.66-10.62,6.27-16.61c0.67-6.57,0.26-13.38-2.33-19.45s-7.59-11.32-13.93-13.15c-8.48-2.45-17.89,1.36-26.29-1.36
				c-6.5-2.1-11.89-7.97-18.72-7.75c-5.4,0.17-9.93,4.26-12.88,8.79c-2.95,4.53-4.84,9.71-8.01,14.09
				c-6.8,9.42-18.77,14-30.38,14.59C282.94,330.24,267.29,321.81,251.2,322.92z"/>
			<path class="st6" d="M408.51,286.13c-9-10.72-6.13-29.17,5.71-36.65c6.01-3.8,13.4-4.84,19.57-8.38
				c8.41-4.82,13.88-14.38,13.75-24.07c-0.05-4.33-0.87-9.42,2.34-12.32c1.68-1.52,4.03-1.96,6.26-2.33
				c10.22-1.72,20.76-3.41,29.65-8.75c6.12-3.67,11.14-8.89,16.83-13.18c7.7-5.81,16.55-9.88,25.33-13.9
				c5.56-2.55,12.16-5.08,17.5-2.12c5.19,2.88,6.69,9.73,6.21,15.64c-0.97,11.98-8.07,23.31-18.44,29.39
				c-15.98,9.37-37.84,6.47-51.85,18.59c-11.13,9.62-14,26.08-24.4,36.48c-5.49,5.49-12.68,8.88-19.13,13.2
				c-6.03,4.04-10.43,9.16-15.68,14c-3.28,3.02-1.88,4.02-5.88,2.63C414.16,293.64,410.08,288,408.51,286.13z"/>
			<g>
				<path class="st14" d="M327.84,417.73c-3.73-4.87-6.29-10.51-9.09-15.97c-12.86-25.15-31.27-47.45-53.53-64.84
					c-1.35-1.05-2.84-2.89-1.77-4.22c0.36-0.46,0.94-0.68,1.51-0.84c4.84-1.37,9.94,0.45,14.76,1.9c4.77,1.44,9.65,2.53,14.58,3.26
					c4.07,0.6,8.19,0.96,12.29,0.68c4.48-0.31,8.88-1.37,13.25-2.43c5.78-1.4,12.04-3.12,15.54-7.93c2.2-3.03,2.95-6.86,4.57-10.25
					c1.62-3.38,4.78-6.61,8.51-6.22c1.35,0.14,2.6,0.74,3.77,1.42c3.42,1.97,6.44,4.62,9.98,6.35c4.66,2.28,9.94,2.83,14.99,4.04
					c5.04,1.21,10.25,3.38,13.06,7.74c2.07,3.22,2.53,7.42,1.21,11.01c-1.5,4.09-5.04,7.1-8.78,9.34
					c-3.74,2.24-7.81,3.92-11.37,6.44c-10.61,7.49-14.97,20.94-17.85,33.61c-2.14,9.44-3.89,19.22-8.3,27.93
					c-1.45,2.87-3.62,7.09-7.42,6.85C333.85,425.37,330.01,420.57,327.84,417.73z"/>
			</g>
			<path class="st5" d="M383.59,308.77c4.51-0.6,9.42-0.88,13.3,1.5c2.93,1.8,4.85,4.92,5.86,8.21c1.01,3.28,1.19,6.76,1.31,10.19
				c0.05,1.5,0.02,3.19-1.08,4.22c-1.39,1.31-3.79,0.73-5.14-0.63c-1.35-1.36-1.98-3.24-2.83-4.96c-2.01-4.09-5.44-7.47-9.57-9.42
				c-2.42-1.14-14.67-2.61-15.24-4.97C369.18,308.66,381.69,309.02,383.59,308.77z"/>
			<path class="st5" d="M311.39,347.63c6.78,0.24,13.74,0.22,20.1-2.14c3.09-1.14,5.96-2.81,8.81-4.46
				c2.26-1.31,4.53-2.63,6.51-4.33c2.29-1.95,4.4-4.5,7.37-4.98c2.55-0.41,5.03,0.84,7.31,2.04c2.52,1.33,5.21,2.85,6.37,5.45
				c1.54,3.47-0.27,7.58-2.84,10.38c-2.57,2.8-5.89,4.86-8.29,7.8c-1.91,2.35-3.15,5.15-4.38,7.92c-3.29,7.46-6.6,14.96-8.76,22.83
				c-0.65,2.37-1.21,4.81-2.46,6.93c-1.24,2.12-3.33,3.92-5.78,4.1c-2.58,0.2-5.02-1.44-6.55-3.53c-1.53-2.09-2.35-4.6-3.27-7.02
				c-3.96-10.38-10.27-19.85-18.33-27.51c-3.06-2.91-6.5-5.63-10.55-6.81c-2.18-0.64-4.57-0.85-6.39-2.21
				c-1.32-0.98-2.49-3.45-1.3-4.94c1.29-1.62,4.29-0.73,5.97-0.57C300.4,347.09,305.89,347.44,311.39,347.63z"/>
			<path class="st5" d="M329.42,376.2c0.6,1.62,1.17,3.3,2.33,4.58c1.16,1.28,3.1,2.04,4.65,1.28c1.12-0.55,1.78-1.72,2.34-2.83
				c2.19-4.33,4.06-8.81,5.58-13.42c1.28-3.86,2.44-8.01,5.44-10.76c1.79-1.64,4.14-2.68,5.58-4.63c1.34-1.82,1.68-4.32,0.88-6.43
				c-0.54-1.43-1.74-2.75-3.26-2.9c-2.44-0.24-4.06,2.32-5.57,4.24c-2.68,3.41-6.69,5.62-10.88,6.74s-8.59,1.23-12.93,1.02
				c-5.25-0.24-9.98,3.98-4.71,8.21C324.05,365.47,327.05,369.86,329.42,376.2z"/>
			<path class="st5" d="M386.14,244.32c1.88-3.78,3.89-7.66,7.15-10.35c4.03-3.33,9.44-4.4,14.64-4.88
				c3.73-0.34,7.99-0.7,10.21-3.71c2.28-3.09,1.2-7.58-0.94-10.78c-4.94-7.4-14.34-10.7-23.23-10.93
				c-8.03-0.21-16.85,2.21-21.27,8.92c-1.12,1.7-1.91,3.6-2.62,5.52c-5.42,14.51-7.08,30.06-7.81,45.43
				c-0.16,3.35-2.72,15.84,1.78,16.54c5.83,0.91,8.89-7.59,10.59-11.4C378.31,260.48,382.14,252.35,386.14,244.32z"/>
			<path class="st5" d="M390.39,229.61c1.67-1.79,3.46-3.52,5.61-4.69c2.61-1.41,5.6-1.91,8.36-2.99c1.67-0.65,3.48-1.87,3.46-3.66
				c-0.02-1.52-1.37-2.66-2.7-3.4c-7.82-4.35-17.86-2.02-25.38,2.83c-1.88,1.21-3.69,2.6-4.93,4.46c-1.39,2.09-1.93,4.6-2.45,7.05
				c-1.43,6.76-2.87,13.51-4.3,20.27c-0.81,3.8-2.79,9.81-1.42,13.65c1.25,3.49,3.96,2.74,4.97-0.21
				c2.71-7.95,5.65-15.45,10.3-22.52C384.42,236.57,387.26,232.95,390.39,229.61z"/>
			<path class="st5" d="M410.47,277.83c-0.91-4.08-0.2-8.35,0.96-12.36c0.94-3.23,2.36-6.63,5.27-8.31c2.25-1.3,4.98-1.35,7.55-1.74
				c7.65-1.18,14.5-5.82,19.34-11.85c4.85-6.03,7.84-13.38,9.72-20.88c0.44-1.76,0.84-3.57,1.74-5.14c2.86-4.96,9.42-5.9,14.98-7.26
				c22.66-5.51,39.94-25.72,62.93-29.65c2.1-0.36,4.3-0.57,6.34,0.05c2.04,0.62,3.9,2.25,4.23,4.35c0.22,1.44-0.28,2.9-0.97,4.19
				c-2.45,4.56-7.21,7.48-12.15,9.06c-4.93,1.58-10.14,2.01-15.25,2.85c-20.23,3.35-39.75,13.98-51.16,31.02
				c-4.73,7.06-7.98,15.01-12.62,22.13c-5.76,8.84-13.61,16.27-22.57,21.85c-2.06,1.29-4.18,2.52-6.08,4.05
				c-1.75,1.4-2.82,3.75-4.47,5.03C414.63,288.07,411.12,280.72,410.47,277.83z"/>
			<path class="st5" d="M450.37,325.37c-1.85,0.08-3.82,0.01-5.39-0.98c-1.23-0.78-2.07-2.05-2.69-3.37
				c-1.27-2.69-1.78-5.67-2.24-8.62c-0.45-2.88-0.85-5.86-0.14-8.69c1.55-6.14,7.87-9.85,13.99-11.47
				c6.12-1.62,12.64-1.87,18.41-4.47c3.46-1.56,6.51-3.9,9.51-6.22c2.28-1.76,4.6-3.56,6.27-5.91c2.21-3.12,3.11-6.96,3.96-10.69
				c0.96-4.22,1.92-8.44,2.88-12.67c1.04-4.57,2.62-9.81,6.97-11.56c1.56-0.63,3.32-0.7,4.97-0.36c3.14,0.65,5.94,2.82,7.35,5.7
				c1.49,3.04,1.43,6.58,1.34,9.96c-0.48,17.84-0.96,35.68-1.44,53.52c-0.1,3.71-0.36,7.81-3,10.42c-1.96,1.94-4.88,2.62-7.64,2.49
				c-2.75-0.13-5.42-0.97-8.08-1.69c-4.56-1.23-9.21-2.12-13.9-2.66c-4.06-0.46-8.26-0.65-12.13,0.66
				c-3.39,1.15-6.39,3.26-9.63,4.76C456.78,324.91,453.66,325.24,450.37,325.37z"/>
			<path class="st5" d="M451.34,307.4c0.32,1.81,2.32,2.76,4.11,3.18c2.64,0.62,5.39,0.75,8.07,0.37c6.67-0.94,13.09-4.93,19.69-3.6
				c5.02,1.01,9.78,5.03,14.66,3.5c3.17-1,5.22-4.16,6.06-7.37c0.84-3.21,0.74-6.59,1.12-9.89c0.6-5.34,2.43-10.46,3.34-15.76
				c0.86-5.02,0.89-10.18,0.08-15.2c-0.27-1.7-0.82-3.63-2.38-4.36c-1.75-0.82-3.8,0.32-5.17,1.68c-3.28,3.28-4.81,7.91-5.71,12.46
				c-0.9,4.55-1.29,9.22-2.79,13.61c-1.5,4.39-4.36,8.6-8.66,10.33c-2.51,1.01-5.28,1.1-7.98,1.31c-4.89,0.38-9.68,0.88-14.55,1.14
				C457.51,298.99,450.53,302.81,451.34,307.4z"/>
			<g>
				<line class="st6" x1="61.93" y1="92.53" x2="61.93" y2="99.94"/>
				<line class="st6" x1="65.64" y1="96.23" x2="58.22" y2="96.23"/>
			</g>
			<g>
				<line class="st6" x1="241.41" y1="214.67" x2="241.41" y2="222.08"/>
				<line class="st6" x1="245.12" y1="218.38" x2="237.7" y2="218.38"/>
			</g>
			<g>
				<line class="st6" x1="386.99" y1="384.12" x2="386.99" y2="391.54"/>
				<line class="st6" x1="390.7" y1="387.83" x2="383.28" y2="387.83"/>
			</g>
			<g>
				<line class="st6" x1="724.37" y1="186.85" x2="724.37" y2="194.27"/>
				<line class="st6" x1="728.08" y1="190.56" x2="720.66" y2="190.56"/>
			</g>
			<g>
				<line class="st6" x1="466.84" y1="50.71" x2="466.84" y2="58.12"/>
				<line class="st6" x1="470.54" y1="54.41" x2="463.13" y2="54.41"/>
			</g>
			<polygon class="st15" points="40.1,371.25 36.21,377.99 43.99,377.99 40.1,371.25 36.21,377.99 43.99,377.99 			"/>
			<polygon class="st15" points="303.78,68.77 299.89,75.51 307.67,75.51 303.78,68.77 299.89,75.51 307.67,75.51 			"/>
			<polygon class="st15" points="655.28,287.63 651.39,294.36 659.17,294.36 655.28,287.63 651.39,294.36 659.17,294.36 			"/>
			<polygon class="st15" points="484.35,468.79 480.46,475.53 488.24,475.53 484.35,468.79 480.46,475.53 488.24,475.53 			"/>
			<polygon class="st15" points="98.78,102.23 94.89,108.96 102.67,108.96 98.78,102.23 94.89,108.96 102.67,108.96 			"/>
		</g>
	</g>
</g>
</svg>
