<?xml version="1.0" standalone="no"?>
<!DOCTYPE svg PUBLIC "-//W3C//DTD SVG 20010904//EN"
 "http://www.w3.org/TR/2001/REC-SVG-20010904/DTD/svg10.dtd">
<svg version="1.0" xmlns="http://www.w3.org/2000/svg"
 width="256.000000pt" height="256.000000pt" viewBox="0 0 256.000000 256.000000"
 preserveAspectRatio="xMidYMid meet">
<metadata>
Created by potrace 1.14, written by Peter Selinger 2001-2017
</metadata>
<g transform="translate(0.000000,256.000000) scale(0.100000,-0.100000)"
fill="#000000" stroke="none">
<path d="M1737 2429 c-19 -10 -47 -33 -62 -51 -54 -64 -57 -81 -57 -355 0
-139 -4 -253 -8 -253 -4 0 -13 7 -20 16 -19 22 -74 43 -124 47 -56 6 -110 -14
-152 -54 -31 -30 -39 -44 -64 -112 l-10 -28 -22 21 c-58 54 -172 70 -246 34
l-40 -21 -1 121 c-1 160 -7 186 -55 243 -93 111 -273 90 -348 -41 l-23 -41 1
-445 c0 -415 6 -617 20 -699 24 -143 81 -285 149 -376 103 -136 286 -236 475
-261 55 -8 196 -7 230 1 14 3 41 8 60 11 114 19 262 94 383 194 30 25 122 142
149 190 81 145 98 238 93 485 -2 110 -7 225 -10 255 -3 29 -7 263 -8 520 -2
414 -4 468 -20 496 -24 45 -73 92 -115 110 -47 19 -130 16 -175 -7z"/>
</g>
</svg>
